<?xml version="1.0" standalone="no"?>
<!DOCTYPE svg PUBLIC "-//W3C//DTD SVG 1.1//EN" "http://www.w3.org/Graphics/SVG/1.1/DTD/svg11.dtd" >
<svg xmlns="http://www.w3.org/2000/svg" xmlns:xlink="http://www.w3.org/1999/xlink" version="1.1">
<metadata>
Created by FontForge 20170910 at Sat Jun  9 23:11:14 2018
 By Jimmy Wärting
</metadata>
<defs>
<font id="NEON" horiz-adv-x="200" >
  <font-face 
    font-family="NEON"
    font-weight="400"
    font-stretch="normal"
    units-per-em="1000"
    panose-1="0 0 0 0 0 0 0 0 0 0"
    ascent="750"
    descent="-250"
    x-height="608"
    cap-height="611"
    bbox="-29.2353 -147 773.778 703.615"
    underline-thickness="50"
    underline-position="-100"
    unicode-range="U+000D-007D"
  />
<missing-glyph 
 />
    <glyph glyph-name=".notdef" 
 />
    <glyph glyph-name="NULL" horiz-adv-x="0" 
 />
    <glyph glyph-name="NULL" horiz-adv-x="0" 
 />
    <glyph glyph-name="nonmarkingreturn" unicode="&#xd;" 
 />
    <glyph glyph-name="space" unicode=" " 
 />
    <glyph glyph-name="P" unicode="P" horiz-adv-x="490" 
d="M260 596h-203q-14 0 -14 -12v-38q0 -9 -6 -9t-6 9v38q0 12 7 19.5t19 7.5h203q43 0 81 -16t66.5 -43.5t45 -65t16.5 -80.5t-16.5 -80.5t-45 -65t-66.5 -43t-81 -15.5h-100v-174q0 -28 -26 -28h-77q-26 0 -26 28v445q0 14 7 22t19 8h203q20 0 36.5 -8t28.5 -21t19 -31
t7 -37q0 -39 -25.5 -66.5t-65.5 -27.5h-114v133q0 7 7 7t7 -7v-120h100q34 0 55.5 23.5t21.5 57.5q0 33 -21.5 57t-55.5 24h-203q-14 0 -14 -14v-445q0 -14 14 -14h77q12 0 12 14v187h114q40 0 75.5 14.5t62.5 40.5t42.5 60.5t15.5 75.5q0 40 -15.5 75t-42.5 60.5t-62.5 40
t-75.5 14.5z" />
    <glyph glyph-name="Q" unicode="Q" horiz-adv-x="663" 
d="M548 107q38 42 57 93t19 105q0 64 -24 119.5t-65 96.5t-96.5 64.5t-119.5 23.5q-63 0 -118 -23.5t-96.5 -64.5t-65 -96.5t-23.5 -119.5t23.5 -119t65 -96t96.5 -64.5t118 -23.5q20 0 39 3t36 7q9 2 17.5 4.5t17.5 6.5q7 2 9.5 -4t-4.5 -8q-8 -5 -17.5 -8t-18.5 -4
q-19 -5 -39 -7.5t-40 -2.5q-66 0 -123.5 25t-100.5 67.5t-67.5 100t-24.5 123.5q0 67 24.5 125t67.5 101t100.5 67.5t123.5 24.5t124 -24.5t101 -67.5t68 -101t25 -125q0 -54 -18 -107t-55 -95l49 -56q16 -18 -5 -36l-56 -47q-20 -17 -39 6q-32 36 -63 72.5t-63 71.5
q-33 -11 -68 -11q-43 0 -79.5 15.5t-63 42.5t-41.5 64t-15 80t15 80.5t41.5 64.5t63 42.5t79.5 15.5t80 -15.5t64 -42.5t42 -64.5t15 -80.5q0 -32 -9 -62.5t-28 -56.5l-5 -7l-63 73q-9 9 -19 2l-56 -47q-5 -4 -5.5 -7.5t5.5 -9.5l24 -27q4 -8 -1 -11.5t-9 1.5l-25 27
q-18 20 3 39l55 44q9 9 19 8t19 -10l53 -59q28 48 28 103q0 41 -14 75.5t-39 60t-59.5 40t-74.5 14.5q-41 0 -75 -14.5t-58.5 -40t-38.5 -60t-14 -75.5q0 -39 14 -73.5t38.5 -60t58.5 -40.5t75 -15q14 0 36 4t35 12l137 -154q5 -6 8.5 -7t9.5 5l56 44q10 9 0 19l-53 58l-3 6
z" />
    <glyph glyph-name="R" unicode="R" horiz-adv-x="536" 
d="M501 32l-162 198l-5 7l9 3q48 23 76.5 67.5t28.5 98.5q0 40 -15 75t-40.5 61t-60.5 41t-75 15h-205q-12 0 -12 -14v-54q-2 -5 -8 -5t-8 5v54q0 12 8 19.5t20 7.5h205q43 0 80.5 -16t65.5 -44t44.5 -65t16.5 -80q0 -55 -30 -101t-79 -72l159 -196q10 -13 5 -25t-22 -12
h-91q-19 0 -31 14l-156 193h-50q-14 0 -14 -14v-165q0 -28 -26 -28h-77q-12 0 -20 7.5t-8 20.5v445q0 14 8 22t20 8h205q20 0 36.5 -8t28 -21.5t18 -31t6.5 -36.5q0 -38 -24.5 -66t-64.5 -28h-88q-12 0 -19.5 6.5t-7.5 19.5v116q0 8 6.5 6.5t6.5 -6.5v-116q0 -13 14 -13h88
q34 0 55 25t21 56q0 32 -21 56.5t-55 24.5h-205q-12 0 -12 -14v-445q0 -14 12 -14h77q13 0 13 14v165q0 14 7.5 21t19.5 7h56l162 -197q6 -10 19 -10h91q12 0 10.5 5.5t-6.5 12.5z" />
    <glyph glyph-name="S" unicode="S" horiz-adv-x="489" 
d="M348 24q46 20 70 57.5t24 88.5q0 43 -16.5 71.5t-42 48.5t-57 33.5t-61.5 25.5q-22 7 -46 16t-41 22q-23 17 -29.5 38t1.5 39.5t29 31t51 12.5q35 0 59 -14.5t32 -50.5q2 -6 4 -9t9 -3h79q9 0 10.5 5t1.5 13q-5 38 -21.5 68t-42.5 50.5t-59.5 31t-71.5 10.5t-71.5 -11
t-59.5 -32t-41 -52t-15 -71q0 -45 16.5 -75t43 -50t58.5 -33.5t63 -25.5q75 -26 106.5 -68t29.5 -84t-33.5 -75.5t-83.5 -40.5q-39 -6 -75.5 4t-66 31.5t-50 53t-27.5 69.5q-1 7 -2.5 16t0 16t7 12t17.5 5h78q24 0 27 -26q5 -23 23 -36t41 -17.5t47 -2t40 11.5q5 5 8.5 -0.5
t-3.5 -11.5q-19 -10 -45.5 -12.5t-52 3.5t-45.5 21t-25 41q-2 8 -4.5 11.5t-10.5 3.5h-78q-14 0 -13 -13t4 -22q7 -35 26.5 -64t47 -48.5t61.5 -28t71 -3.5q46 7 74 37t29 67.5t-29 75.5t-99 62q-32 12 -65.5 26t-61 35.5t-45 54t-17.5 80.5q0 42 16 75.5t44 56.5t64 35.5
t77 12.5t77 -11.5t64 -33.5t45.5 -54.5t22.5 -74.5q1 -14 -5.5 -23t-20.5 -9h-79q-12 0 -18.5 7t-8.5 16q-6 33 -26 44t-51 11q-25 0 -42 -9.5t-24 -24t-2.5 -31.5t23.5 -32q18 -13 40.5 -21.5t43.5 -16.5q32 -12 65.5 -25.5t60.5 -34.5t44 -52.5t17 -77.5
q0 -53 -26.5 -93.5t-74.5 -64.5q-8 -4 -10.5 2.5t3.5 9.5z" />
    <glyph glyph-name="T" unicode="T" horiz-adv-x="461" 
d="M409 596h-364q-14 0 -14 -12v-72q0 -14 14 -14h71q8 0 8 -6.5t-8 -6.5h-71q-27 0 -27 27v72q0 12 7 19.5t20 7.5h364q13 0 19.5 -7.5t6.5 -19.5v-72q0 -27 -26 -27h-222q-11 0 -11 -13v-444q0 -14 11 -14h77q14 0 14 14v430q0 6 6.5 6t6.5 -6v-430q0 -28 -27 -28h-77
q-25 0 -25 28v444q0 26 25 26h222q7 0 10.5 4.5t3.5 9.5v72q0 12 -14 12z" />
    <glyph glyph-name="U" unicode="U" horiz-adv-x="501" 
d="M259 2q40 3 75 17t60 37.5t39.5 57t14.5 76.5v394q0 12 -14 12h-77q-11 0 -11 -12v-398q-1 -43 -14 -77t-35 -57t-51 -35t-62 -10q-39 1 -70.5 15.5t-53.5 38.5t-34 57t-12 72v394q0 12 7 19.5t21 7.5h74q14 0 21.5 -7.5t7.5 -19.5v-384q0 -21 5 -36.5t18 -25.5
q10 -9 25.5 -14t32 -6.5t32 0t27.5 6.5q8 3 10 -3t-10 -10q-14 -5 -31.5 -7t-35 0.5t-33 8t-26.5 15.5q-29 24 -29 72v384q0 12 -14 12h-74q-14 0 -14 -12v-394q0 -73 42.5 -120t115.5 -50q30 -1 56.5 10.5t46 33t30.5 52.5t11 70v398q0 12 7.5 19.5t19.5 7.5h77
q13 0 20 -7.5t7 -19.5v-394q0 -46 -15.5 -82t-42.5 -61.5t-64 -40t-80 -17.5q-8 0 -8 5.5t8 7.5z" />
    <glyph glyph-name="V" unicode="V" horiz-adv-x="588" 
d="M233 14h56q5 0 6 -7t-6 -7h-56q-22 0 -30 23l-183 556q-2 14 4.5 23t20.5 9h86q22 0 28 -23l175 -574q9 0 16 0.5t10 11.5l181 557q6 13 -9 13h-87q-8 0 -10 -1q-1 -2 -2.5 -4t-3.5 -7l-112 -367q-3 -5 -8.5 -2.5t-2.5 10.5l110 363q3 11 11 18q5 2 9 3.5t9 1.5h87
q14 0 20.5 -9t2.5 -23l-182 -556q-3 -10 -8 -14.5t-11.5 -6.5t-14.5 -2h-16l-178 584q-2 8 -4.5 10t-9.5 2h-86q-15 0 -11 -13l183 -557q3 -12 16 -12z" />
    <glyph glyph-name="W" unicode="W" horiz-adv-x="801" 
d="M738 596h-81q-13 0 -16 -12l-122 -454l-82 313q-29 -106 -58.5 -208t-58.5 -205q-4 -14 -9.5 -22t-21.5 -8h-95q-17 0 -22 9t-8 23l-156 547q-5 14 2 23t21 9h81q21 0 29 -23l107 -406l76 268q5 18 23 18h43q7 0 7 -6t-7 -8h-43q-7 0 -11 -7l-81 -292l-7 -23l-7 23
l-114 429q-3 12 -15 12h-81q-16 0 -10 -13l156 -549q2 -8 4.5 -14t12.5 -6h95q11 0 13 5.5t4 12.5l122 426q2 8 8.5 8t10.5 -8l72 -274l109 399q2 13 8.5 20.5t20.5 7.5h81q14 0 20.5 -9t2.5 -23l-154 -545q-5 -15 -11 -24.5t-23 -9.5h-94q-14 0 -21 8t-9 20l-55 198
q-3 11 2.5 13.5t8.5 -4.5l56 -203q2 -7 5 -12.5t13 -5.5h94q12 0 14.5 6.5t5.5 14.5l156 548q4 13 -11 13z" />
    <glyph glyph-name="X" unicode="X" horiz-adv-x="528" 
d="M474 28l-168 286l155 263q2 5 5.5 12t-9.5 7h-89q-11 0 -14.5 -4.5t-8.5 -12.5l-96 -163l-100 170q-2 7 -7 8.5t-12 1.5h-89q-13 0 -7 -13l223 -383l-104 -180q-11 -20 -33 -20h-88q-16 0 -21.5 10.5t2.5 24.5l136 234q5 8 11 4.5t1 -12.5l-137 -233q-6 -14 8 -14h88
q14 0 19 12l103 174q-55 94 -109.5 187t-108.5 187q-8 16 -4 26.5t21 10.5h89q22 0 31 -16l88 -152l80 138q8 11 15 20.5t24 9.5h89q19 0 23.5 -12t-6.5 -27l-150 -258l162 -279q8 -14 2.5 -24.5t-21.5 -10.5h-89q-11 0 -18 5t-13 13l-76 128q-2 7 4 10t8 -3l76 -129
q4 -10 19 -10h89q9 0 9 7q0 3 -2 7z" />
    <glyph glyph-name="Y" unicode="Y" horiz-adv-x="536" 
d="M482 596h-90q-9 0 -12 -3t-8 -10l-86 -157q-4 -5 -9 -2.5t-2 9.5l86 155q6 11 11.5 17t19.5 6h90q18 0 22 -12t-5 -27l-174 -295q-9 -15 -16 0l-173 309q-3 7 -7.5 8.5t-10.5 1.5h-88q-17 0 -8 -13l182 -308v-247q0 -14 13 -14h78q12 0 12 14v210q0 8 7 8t7 -8v-210
q0 -28 -26 -28h-78q-11 0 -19 7.5t-8 20.5v242l-179 307q-9 14 -3 24t22 10h88q20 0 30 -19q44 -79 79 -142q15 -27 30 -53.5t27 -48.5t21 -37.5t12 -19.5l171 288q5 7 5 12t-11 5z" />
    <glyph glyph-name="Z" unicode="Z" horiz-adv-x="457" 
d="M383 485h-347q-11 0 -19 7t-8 20v72q0 12 8 19.5t19 7.5h353q13 0 20.5 -7.5t7.5 -19.5v-45q0 -5 -7 -6t-7 6v45q0 12 -14 12h-353q-13 0 -13 -12v-72q0 -14 13 -14h358q4 0 7.5 -3.5t-0.5 -9.5l-228 -359h221q12 0 20 -7t8 -19v-72q0 -13 -8 -20.5t-20 -7.5h-363
q-26 0 -26 28v60q0 11 3 18.5t9 16.5l209 327q4 8 9.5 5t0.5 -10l-208 -331q-4 -7 -7.5 -12t-3.5 -14v-60q0 -14 14 -14h363q12 0 12 14v72q0 12 -12 12h-246z" />
    <glyph glyph-name="A" unicode="A" horiz-adv-x="579" 
d="M348 584q-2 8 -7 11t-11 3h-109q-5 0 -10.5 -3t-6.5 -11l-16 -44q-2 -8 -8.5 -6t-4.5 10l15 46q9 21 31 21h109q22 0 31 -21l189 -558q6 -14 -1.5 -23t-21.5 -9h-85q-22 0 -29 23l-25 72q-3 8 -6 10q-2 2 -11 2h-190q-12 0 -18 -12l-23 -72q-5 -23 -31 -23h-84
q-15 0 -21.5 9t-1.5 23l149 443q7 21 32 21h68q22 0 31 -21l83 -258h-179l55 170q2 7 8.5 5t3.5 -10l-48 -149h141l-77 239q-5 12 -18 12h-68q-15 0 -18 -12l-151 -444q-4 -14 11 -14h84q15 0 18 12l22 74q10 21 32 21h190q24 0 30 -21l24 -74q3 -12 17 -12h85q16 0 10 14z
" />
    <glyph glyph-name="B" unicode="B" horiz-adv-x="567" 
d="M443 445q0 32 -12.5 60t-35.5 48q-45 43 -122 43h-225q-14 0 -14 -12v-34q0 -6 -7 -6t-7 6v34q0 12 7 19.5t21 7.5h225q40 0 74 -13t58 -35q25 -23 38.5 -53t13.5 -65q0 -39 -19 -72q48 -27 74 -74t26 -101q0 -42 -14.5 -78t-41 -63t-62 -42t-77.5 -15h-295q-28 0 -28 28
v445q0 14 7 22t21 8h225q29 0 47.5 -18.5t18.5 -47.5q0 -14 -5.5 -26t-13.5 -22l-2 -2h-3h-150q-14 0 -14 -14v-63q0 -14 14 -14h162q44 0 68.5 -25.5t24.5 -67.5t-25 -67t-68 -25h-162q-28 0 -28 27v90q0 8 7 8t7 -8v-90q0 -14 14 -14h162q37 0 58 21.5t21 57.5
q0 79 -79 79h-162q-13 0 -20.5 8t-7.5 20v63q0 27 28 27h147q14 17 14 37q0 23 -14.5 36.5t-38.5 13.5h-225q-14 0 -14 -14v-445q0 -14 14 -14h295q39 0 72.5 14t58 38.5t38 58.5t13.5 73q0 54 -26 97.5t-73 69.5l-8 3q12 19 18.5 36.5t6.5 40.5z" />
    <glyph glyph-name="C" unicode="C" horiz-adv-x="652" 
d="M512 214q-20 -63 -65 -105.5t-100.5 -61.5t-115.5 -13.5t-109 36.5t-80.5 89.5t-31.5 145.5q0 67 24.5 125t67 101t100 67.5t123.5 24.5q50 0 96.5 -13.5t86 -40t69 -64.5t44.5 -86q4 -14 -1.5 -24.5t-21.5 -10.5h-84q-16 0 -21.5 8t-11.5 20q-23 44 -65.5 63.5
t-90.5 19.5q-61 0 -102.5 -28t-61.5 -70t-20.5 -91.5t20.5 -91.5t61.5 -70t102.5 -28q9 2 9 -5.5t-9 -7.5q-65 0 -109 30t-66 75t-22 97.5t22 97.5t65.5 75t109.5 30q54 0 101.5 -23.5t70.5 -74.5q2 -8 8.5 -10t8.5 -2h84q10 0 11 5t-2 13q-15 46 -42.5 82t-65 60.5
t-82 37.5t-92.5 13q-63 0 -118.5 -23.5t-96 -64.5t-64 -96.5t-23.5 -119.5q0 -70 22 -120.5t58 -82t81.5 -45.5t92.5 -10q40 3 76.5 18t66 39t51 55.5t32.5 68.5h95q14 0 20.5 -9t2.5 -23q-14 -47 -40 -81.5t-67 -63.5q-38 -29 -86.5 -45.5t-102.5 -16.5q-7 0 -7 6.5t7 6.5
q53 0 98.5 16t85.5 45q32 23 60.5 59.5t39.5 77.5q3 14 -11 14h-86v0z" />
    <glyph glyph-name="D" unicode="D" horiz-adv-x="597" 
d="M277 596h-233q-14 0 -14 -12v-444q0 -14 14 -14h233q40 0 71.5 14t53.5 38t33.5 56.5t11.5 70.5q0 39 -11.5 72t-33.5 57t-53.5 37.5t-71.5 13.5h-116q-13 0 -13 -13v-284q0 -8 -7 -7.5t-7 7.5v284q0 26 27 26h116q43 0 76.5 -14.5t56.5 -40.5t35.5 -61t12.5 -77
q0 -40 -12.5 -75t-35.5 -61.5t-56.5 -41.5t-76.5 -15h-233q-12 0 -20 8t-8 20v444q0 12 8 19.5t20 7.5h233q64 0 118.5 -24t93.5 -66t61 -97.5t22 -118.5t-22 -118.5t-61 -97t-93.5 -65.5t-118.5 -24h-233q-12 0 -20 7.5t-8 20.5v42q0 9 7 9t7 -9v-42q0 -14 14 -14h233
q61 0 113 23t89.5 63t58.5 92.5t21 112.5q0 61 -21 114t-58.5 92.5t-89.5 62t-113 22.5z" />
    <glyph glyph-name="E" unicode="E" horiz-adv-x="405" 
d="M360 112h-215h-8v9v81q0 7 8 7t8 -7v-76h207q27 0 27 -26v-72q0 -28 -27 -28h-311q-28 0 -28 28v207q0 26 28 26h286q13 0 13 14v69q0 14 -13 14h-198v140h220q7 0 10 4.5t3 9.5v72q0 12 -13 12h-308q-14 0 -14 -12v-277q-2 -7 -8 -6t-6 6v277q0 12 7.5 19.5t20.5 7.5
h308q13 0 19.5 -7.5t6.5 -19.5v-72q0 -27 -26 -27h-204v-114h182q27 0 27 -27v-69q0 -28 -27 -28h-286q-14 0 -14 -12v-207q0 -14 14 -14h311q14 0 14 14v72q0 12 -14 12z" />
    <glyph glyph-name="F" unicode="F" horiz-adv-x="427" 
d="M370 498q6 0 9 5q5 5 5 9v71q0 4 -1.5 7t-3.5 5q-1 1 -9 1h-295h-19q-7 0 -9 -1q-4 -6 -4 -12v-204q0 -14 13 -14h289q11 0 19 -7.5t8 -19.5v-71q0 -11 -8 -18t-19 -7h-184v-214q0 -28 -28 -28h-77q-26 0 -26 28v275q0 7 6.5 7.5t6.5 -7.5v-275q0 -14 13 -14h77
q14 0 14 14v228h198q11 0 11 11v71q0 14 -11 14h-289q-26 0 -26 27v204q0 14 7 21l9 4.5t10 2.5h19h295q6 0 11.5 -2.5t8.5 -4.5q2 -5 4.5 -9.5t2.5 -11.5v-71q0 -5 -2.5 -11t-4.5 -8q-3 -5 -8.5 -6.5t-11.5 -1.5h-209v-73q0 -8 -7 -8t-7 8v81v5h6h217v0z" />
    <glyph glyph-name="G" unicode="G" horiz-adv-x="652" 
d="M598 321h-242q-14 0 -14 -14v-63q0 -5 3 -9.5t11 -4.5h143h10l-2 -7q-7 -33 -24 -57t-41 -39t-53.5 -22.5t-60.5 -7.5q-44 0 -80 15.5t-64 42.5q-8 9 -3 14t12 -4q25 -26 60 -40t75 -14q28 0 54 6.5t48 19.5t38 33t24 47h-136q-14 0 -22 7.5t-8 19.5v63q0 14 8 21t22 7
h242q24 0 27 -28q2 -60 -15.5 -117t-58.5 -102q-41 -48 -99 -72.5t-121 -16.5q-52 7 -95.5 35.5t-74 69.5t-46 91t-10.5 101q4 47 24 86t50 67t68 44t79 17q22 0 45.5 -5t45 -14.5t40 -24.5t31.5 -35q4 -8 8 -13.5t15 -5.5h83q14 0 10 12q-5 22 -17.5 43t-29 39.5t-35.5 34
t-38 26.5q-35 21 -75 31.5t-81 10.5q-65 0 -120 -23t-95.5 -63.5t-63.5 -96.5t-23 -121q0 -81 36.5 -151t105.5 -112q8 -4 14 -7.5t13 -6.5q8 -3 5.5 -9.5t-10.5 -2.5q-8 3 -15 7t-14 7q-71 44 -110 117t-39 158q0 68 24 126.5t66 101t100 66.5t126 24q44 0 86.5 -12
t78.5 -34q26 -17 49.5 -36.5t40.5 -42.5q9 -16 17.5 -33t16.5 -37q6 -12 -1.5 -21t-21.5 -9h-83q-16 0 -21.5 8t-13.5 20q-12 16 -28.5 29t-36 22t-40 14t-40.5 5q-39 0 -75.5 -14.5t-65.5 -41t-48.5 -63.5t-23.5 -81q-4 -48 10.5 -96t43.5 -87t70.5 -65.5t90.5 -33.5
q60 -9 115.5 14t93.5 67t54.5 100t14.5 112q-3 14 -13 14z" />
    <glyph glyph-name="H" unicode="H" horiz-adv-x="497" 
d="M437 596h-77q-14 0 -14 -12v-221h-149q-5 0 -5 7t5 7h135v207q0 12 7 19.5t21 7.5h77q11 0 19 -7.5t8 -19.5v-556q0 -13 -8 -20.5t-19 -7.5h-77q-28 0 -28 28v224h-172q-26 0 -26 27v305q0 12 -14 12h-77q-14 0 -14 -12v-556q0 -14 14 -14h77q14 0 14 14v168q0 8 6.5 8
t6.5 -8v-168q0 -28 -27 -28h-77q-27 0 -27 28v556q0 12 6.5 19.5t20.5 7.5h77q14 0 20.5 -7.5t6.5 -19.5v-305q0 -14 13 -14h186v-237q0 -14 14 -14h77q13 0 13 14v556q0 12 -13 12z" />
    <glyph glyph-name="I" unicode="I" horiz-adv-x="210" 
d="M46 584v-556q0 -14 14 -14h77q14 0 14 14v440q0 14 -14 14h-10q-7 0 -7 6.5t7 6.5h10q13 0 20 -7.5t7 -19.5v-440q0 -28 -27 -28h-77q-28 0 -28 28v556q0 12 7 19.5t21 7.5h77q13 0 20 -7.5t7 -19.5v-59q0 -8 -6.5 -7.5t-6.5 7.5v59q0 12 -14 12h-77q-14 0 -14 -12z" />
    <glyph glyph-name="J" unicode="J" horiz-adv-x="449" 
d="M204 2q42 0 77.5 12t61 35.5t40 57t14.5 77.5v284q0 14 -13 14h-9q-8 0 -7.5 6.5t7.5 6.5h9q13 0 19.5 -7.5t6.5 -19.5v-284q0 -46 -15.5 -82.5t-43 -61.5t-65.5 -38t-82 -13q-85 0 -140 46.5t-65 131.5v13q0 25 23 25h79q17 0 22 -9.5t9 -23.5q5 -30 22.5 -43t49.5 -13
q34 0 54.5 15.5t20.5 52.5v400q0 12 8 19.5t19 7.5h78q13 0 19.5 -7.5t6.5 -19.5v-59q0 -8 -6.5 -7.5t-6.5 7.5v59q0 12 -13 12h-78q-13 0 -13 -12v-400q0 -42 -25 -61.5t-64 -19.5q-35 0 -57.5 16t-28.5 50q-2 8 -4 15t-13 7h-79q-10 0 -10 -11v-13q9 -78 60 -121.5
t132 -43.5z" />
    <glyph glyph-name="K" unicode="K" horiz-adv-x="516" 
d="M474 28l-214 286l205 269q9 13 -7 13h-91q-9 0 -13 -4t-9 -11l-189 -243v-310q0 -28 -27 -28h-78q-26 0 -26 28v556q0 12 6.5 19.5t19.5 7.5h78q13 0 20 -7.5t7 -19.5v-163q0 -5 -7 -5t-7 5v163q0 12 -13 12h-78q-12 0 -12 -12v-556q0 -14 12 -14h78q13 0 13 14v312
l191 248q8 11 15 17t19 6h91q16 0 21.5 -11.5t-3.5 -25.5l-199 -260l204 -275q11 -12 9 -25.5t-23 -13.5h-91q-20 0 -29 16l-164 217q-6 5 -0.5 9.5t10.5 -0.5l164 -218q6 -10 19 -10h91q14 0 7 14z" />
    <glyph glyph-name="a" unicode="a" horiz-adv-x="595" 
d="M221 596q-9 0 -12 -4.5t-5 -12.5l-187 -545q-2 -9 -2.5 -15t11.5 -6h86q13 0 16 11l24 73q4 23 30 23h160q9 -1 8.5 -6.5t-8.5 -6.5h-160q-17 0 -18 -13l-22 -73q-8 -21 -30 -21h-86q-19 0 -24 10t3 25l184 546q4 14 10 21.5t22 7.5h111q17 0 22.5 -9t10.5 -22l185 -542
q7 -16 3 -26.5t-25 -10.5h-84q-16 0 -22 7.5t-10 19.5l-58 176q-2 15 -16 15h-152l89 276l67 -212q5 -6 -1.5 -8t-8.5 5l-57 171l-69 -220h132q22 0 31 -20l55 -181q5 -6 7.5 -11t12.5 -5h84q13 0 12.5 5.5t-2.5 13.5l-186 546q-3 8 -6 13t-14 5h-111z" />
    <glyph glyph-name="b" unicode="b" horiz-adv-x="583" 
d="M451 441q0 35 -13 62.5t-35 46.5q-23 22 -53.5 34t-68.5 12h-228q-14 0 -14 -14v-170q0 -14 14 -14h266q14 19 14 35q0 26 -13.5 40t-38.5 14h-126v-49q0 -7 -6.5 -6t-6.5 6v61h139q29 0 48 -17.5t19 -48.5q0 -13 -6.5 -25.5t-17.5 -23.5h-271q-12 0 -20 8t-8 20v170
q0 14 8 21t20 7h228q39 0 72.5 -12.5t57.5 -36.5q24 -23 38.5 -53t14.5 -67q0 -18 -5 -35t-13 -34q48 -28 74 -74.5t26 -101.5q0 -42 -14.5 -78t-41 -62t-62.5 -41t-78 -15h-297q-12 0 -20 6.5t-8 20.5v318q1 8 7.5 7.5t6.5 -7.5v-318q0 -14 14 -14h297q39 0 72 14t57 38.5
t38 58t14 72.5q0 59 -27.5 103t-78.5 68q13 18 19.5 35t6.5 39zM142 109v187h194q42 0 67.5 -25.5t25.5 -70.5q0 -40 -25.5 -65.5t-70.5 -25.5h-191zM333 124q38 0 60 20.5t22 55.5q0 39 -21.5 60.5t-57.5 21.5h-181v-158h178z" />
    <glyph glyph-name="c" unicode="c" horiz-adv-x="648" 
d="M601 396q2 0 5 0.5t4 4.5t1 11q-10 39 -39 75t-61 61q-39 29 -85 44.5t-98 15.5q-7 0 -7 6t7 8q53 0 101.5 -16.5t88.5 -45.5t65.5 -64t39.5 -83q4 -13 -1 -19q-5 -8 -10 -9.5t-11 -1.5h-95l-4 13q-21 59 -64 98.5t-96 56.5t-109 11.5t-102.5 -35.5t-76 -85.5
t-29.5 -138.5q0 -63 23.5 -118t64.5 -96t96 -64.5t119 -23.5q47 0 91 13t80.5 37t65 59t44.5 80q2 7 3.5 14.5t-11.5 7.5h-83q-12 0 -18 -11.5t-11 -19.5q-26 -41 -69 -61t-92 -20q-66 0 -110 30t-66 75t-22 97.5t22 97.5t66 75t110 30h2q8 0 8 -6t-8 -6h-2q-62 0 -103 -28
t-61.5 -70t-20.5 -91t20.5 -91t61.5 -70t103 -28q44 0 84 16.5t63 51.5q4 6 7.5 14t8 15t11 11.5t16.5 4.5h83q21 0 23.5 -13.5t-2.5 -28.5q-17 -47 -46.5 -84t-68 -62.5t-84.5 -39.5t-95 -14q-67 0 -124.5 25t-100 67.5t-67 100.5t-24.5 124q0 87 31.5 146t80.5 90.5
t108.5 36.5t115.5 -13.5t101 -61t66 -105.5h86z" />
    <glyph glyph-name="d" unicode="d" horiz-adv-x="612" 
d="M281 13q63 0 114.5 23t89 62.5t58 92t20.5 112.5q0 61 -20.5 114t-58 93t-89 63t-114.5 23h-233q-12 0 -12 -14v-44q0 -8 -6.5 -8t-6.5 8v44q0 14 7 21t18 7h233q65 0 119.5 -24t93.5 -65.5t61 -97.5t22 -120q0 -63 -22 -118t-61 -96t-93.5 -65t-119.5 -24h-233
q-11 0 -18 6.5t-7 20.5v441q0 14 7 21t18 7h233q43 0 77 -14.5t58 -40.5t36.5 -61.5t12.5 -76.5q0 -40 -12.5 -75t-36.5 -60.5t-58 -40.5t-77 -15h-114q-12 0 -20 8t-8 21v282q0 7 7 7t7 -7v-282q0 -14 14 -14h114q39 0 71 13.5t54.5 37t34.5 55.5t12 70q0 39 -12 71.5
t-34.5 56t-54.5 37t-71 13.5h-233q-6 0 -9 -2.5t-3 -10.5v-441q0 -14 12 -14h233v0z" />
    <glyph glyph-name="e" unicode="e" horiz-adv-x="410" 
d="M131 112v94q0 9 6 9t6 -9v-79h209q14 0 20.5 -8t6.5 -22v-70q0 -27 -27 -27h-295h-17q-28 0 -28 27v555q0 28 28 28h309q26 0 26 -28v-72q0 -12 -7 -20.5t-19 -8.5h-206v-207q0 -9 2 -11q2 -1 4.5 -2t7.5 -1h170q4 0 5.5 1t5.5 2q3 1 3 11v69q0 5 -3 10q-4 2 -5.5 2.5
t-5.5 0.5h-143q-8 0 -8 7t8 7h143q5 0 11 -2t9 -6q4 -2 6 -8t2 -11v-69q0 -13 -8 -21q-3 -4 -9 -5t-11 -1h-170q-13 0 -20 6q-6 6 -6 21v222h218q13 0 13 14v72q0 14 -13 14h-309q-14 0 -14 -14v-555q0 -14 14 -14h17h295q13 0 13 14v70q0 15 -13 15h-221z" />
    <glyph glyph-name="f" unicode="f" horiz-adv-x="407" 
d="M136 206q0 9 6 9t9 -9v-179q0 -27 -29 -27h-77q-24 0 -24 27v555q0 28 24 28h308q29 0 29 -28v-72q0 -12 -7.5 -20.5t-21.5 -8.5h-202v-207q0 -14 12 -14h170q13 0 13 14v69q0 13 -13 13h-142q-8 0 -9 7t9 7h142q27 0 27 -27v-69q0 -27 -27 -27h-170q-27 0 -27 27v222
h217q16 0 16 14v72q0 14 -16 14h-308q-12 0 -12 -14v-555q0 -14 12 -14h77q5 0 9.5 3t4.5 11v179v0z" />
    <glyph glyph-name="g" unicode="g" horiz-adv-x="661" 
d="M354 319q-13 0 -13 -14v-63q0 -13 13 -13h224q13 0 19.5 -6t8.5 -15t0.5 -19t-5.5 -19q-34 -85 -105.5 -132t-168.5 -52h-11q-67 0 -123 25t-96.5 68.5t-63.5 101t-23 122.5q0 68 24 126.5t67 101t100.5 67t125.5 24.5q44 0 87 -12t80.5 -35t68 -55.5t48.5 -74.5
q3 -8 6 -17t3 -16t-6 -11.5t-21 -4.5h-84q-13 0 -19 6.5t-11 14.5q-25 38 -66.5 57t-85.5 19q-42 0 -76.5 -14t-58.5 -39t-37.5 -60t-13.5 -77q0 -41 13 -76.5t37.5 -61.5t59 -41t76.5 -15q45 0 86 17t65 56q5 8 9.5 7t3.5 -8q-23 -46 -69 -66t-95 -20q-46 0 -82.5 16
t-62 44t-39.5 66t-14 82q0 45 14 82t40 64t62.5 41.5t81.5 14.5q48 0 93 -19.5t70 -61.5q3 -5 7 -9.5t12 -4.5h84q13 0 10 10.5t-6 18.5q-17 40 -45.5 71t-64.5 53t-77 33.5t-83 11.5q-65 0 -120.5 -23.5t-96 -64.5t-63 -96.5t-22.5 -120.5q0 -62 21.5 -117t60 -96t92 -65
t117.5 -24h11q90 3 158 46.5t100 122.5q2 4 5 12t3.5 15t-3 12.5t-12.5 5.5h-224q-13 0 -20 8t-7 19v63q0 28 27 28h243q27 0 27 -28v-18.5t-2 -18.5q-2 -9 -8.5 -7.5t-6.5 7.5q3 10 3.5 18.5t0.5 18.5q0 14 -14 14h-243z" />
    <glyph glyph-name="h" unicode="h" horiz-adv-x="508" 
d="M366 596q-13 0 -13 -14v-170q0 -8 -6.5 -8t-6.5 8v170q0 28 26 28h77q27 0 27 -28v-191q0 -27 -27 -27h-303v218q0 14 -13 14h-77q-6 0 -10.5 -3t-4.5 -11v-555q0 -8 4.5 -11t10.5 -3h77q13 0 13 14v236h303q27 0 27 -28v-208q0 -27 -27 -27h-77q-26 0 -26 27v184
q0 9 6.5 10t6.5 -10v-184q0 -14 13 -14h77q8 0 10.5 3t2.5 11v208q0 9 -2.5 12t-10.5 3h-288v-223q0 -27 -28 -27h-77q-12 0 -19.5 6.5t-7.5 20.5v555q0 14 7.5 21t19.5 7h77q28 0 28 -28v-205h288q8 0 10.5 3.5t2.5 10.5v191q0 7 -2.5 10.5t-10.5 3.5h-77z" />
    <glyph glyph-name="i" unicode="i" horiz-adv-x="176" 
d="M129 582q0 14 -13 14h-77q-15 0 -15 -14v-438q0 -14 15 -14h9q8 0 8 -6t-8 -6h-9q-27 0 -27 26v438q0 28 27 28h77q28 0 28 -28v-555q0 -27 -28 -27h-77q-27 0 -27 27v58q0 8 6 8t6 -8v-58q0 -14 15 -14h77q13 0 13 14v555z" />
    <glyph glyph-name="j" unicode="j" horiz-adv-x="449" 
d="M208 -14q-83 0 -137.5 47t-64.5 133q-1 15 3 26t25 11h76q14 0 20 -9t9 -23q3 -24 12.5 -47t25 -42t37 -31.5t48.5 -16.5q26 -5 51.5 2t45.5 25.5t32 48.5t12 72v400q0 7 -2.5 10.5t-10.5 3.5h-74q-14 0 -14 -14v-400q0 -24 -9.5 -40.5t-25 -26.5t-36 -12t-42.5 4
q-8 2 -5.5 7.5t7.5 4.5q18 -5 35.5 -3t31 9.5t22 21.5t8.5 35v400q0 28 28 28h74q28 0 28 -28v-400q0 -45 -13.5 -77t-36 -52.5t-50.5 -28.5t-56 -3q-29 3 -52.5 16.5t-41 33.5t-28.5 46t-14 53q-2 8 -4.5 14t-11.5 6h-76q-11 0 -12.5 -7t-1.5 -14q8 -80 59 -124t129 -44
q8 0 8 -7.5t-8 -7.5z" />
    <glyph glyph-name="k" unicode="k" horiz-adv-x="501" 
d="M458 29q-69 95 -138 188.5t-139 187.5l142 184q7 8 14 14.5t20 6.5h91q16 0 22 -11t-5 -26l-169 -219q-5 -5 -9.5 -2t-0.5 10l167 220q7 7 4.5 10.5t-9.5 3.5h-91q-8 0 -12.5 -3.5t-9.5 -11.5l-137 -176q69 -93 137 -184.5t135 -183.5q11 -15 7.5 -26t-21.5 -11h-90
q-15 0 -21.5 6.5t-14.5 17.5l-189 244v-241q0 -27 -23 -27h-77q-27 0 -27 27v555q0 28 27 28h77q23 0 23 -28v-245q0 -8 -5.5 -8t-5.5 8v245q0 14 -12 14h-77q-15 0 -15 -14v-555q0 -14 15 -14h77q12 0 12 14v258q1 8 6 8t11 -8l195 -256q4 -6 8.5 -11t15.5 -5h90
q11 0 10 5.5t-8 10.5z" />
    <glyph glyph-name="l" unicode="l" horiz-adv-x="413" 
d="M51 112q-12 0 -20 8t-8 21v441q0 14 8 21t20 7h77q27 0 27 -28v-411q0 -9 -6.5 -7.5t-6.5 7.5v411q0 14 -14 14h-77q-13 0 -13 -14v-441q0 -14 13 -14h298q14 0 21 -8t7 -22v-70q0 -27 -28 -27h-298q-12 0 -20 6.5t-8 20.5v38q0 9 7.5 9t7.5 -9v-38q0 -14 13 -14h298
q8 0 10.5 3t2.5 11v70q0 8 -2.5 11.5t-10.5 3.5h-298z" />
    <glyph glyph-name="m" unicode="m" horiz-adv-x="647" 
d="M485 596q-11 0 -15.5 -8.5t-6.5 -16.5l-153 -350l-158 365q-4 5 -7 7.5t-11 2.5h-74l82 -188v-381q0 -27 -26 -27h-78q-26 0 -26 27v517q1 7 6.5 7t6.5 -7v-517q0 -14 13 -14h78q12 0 12 14v379l-81 190q-4 7 -1 10.5t8 3.5h80q14 0 20.5 -6.5t10.5 -15.5l145 -332
l140 317q5 14 11 25.5t24 11.5h98q26 0 26 -28v-555q0 -27 -26 -27h-78q-26 0 -26 27v349l-108 -250q-6 -14 -12 -22.5t-23 -8.5h-51q-15 0 -21.5 7.5t-11.5 17.5l-87 200q-2 10 3.5 11.5t7.5 -6.5l89 -198q3 -9 6.5 -13.5t13.5 -4.5h51q11 0 14 5.5t8 12.5l134 312v-412
q0 -14 13 -14h78q8 0 10 3t2 11v555q0 7 -2 10.5t-10 3.5h-98z" />
    <glyph glyph-name="n" unicode="n" horiz-adv-x="503" 
d="M134 398l228 -364q5 -9 10 -15t17 -6h66q5 0 5 -6.5t-5 -6.5h-66q-18 0 -24.5 8.5t-15.5 20.5l-203 324v-326q0 -27 -26 -27h-78q-12 0 -20 6.5t-8 20.5v555q0 14 8 21t20 7h55q17 0 24 -9t14 -22q80 -128 160 -253.5t160 -253.5v510q0 14 -12 14h-78q-13 0 -13 -14v-275
q0 -7 -7.5 -7t-7.5 7v275q0 28 28 28h78q25 0 25 -28v-531q0 -5 -5 -7.5t-9 5.5q-83 133 -165.5 262.5t-166.5 260.5q-5 8 -9.5 16t-15.5 8h-55q-14 0 -14 -14v-555q0 -14 14 -14h78q14 0 14 14v371z" />
    <glyph glyph-name="o" unicode="o" horiz-adv-x="664" 
d="M323 608q-7 0 -7 7t7 7q66 0 124 -25t100.5 -68t67 -101.5t24.5 -124.5q0 -65 -24.5 -123t-67 -101t-100.5 -68t-124 -25t-123.5 25t-100 67.5t-67 100.5t-24.5 124q0 73 22.5 126t59 86.5t83 48.5t95 13t95 -21t82.5 -54t58 -85t21 -114q-1 -42 -16.5 -79t-42 -64.5
t-63 -43.5t-79.5 -16t-79.5 16t-62.5 43.5t-41 64.5t-15 79q0 43 15 80t41 64t62.5 42.5t79.5 15.5q11 0 10.5 -6t-5.5 -6h-5q-40 0 -74 -14.5t-59 -40t-39 -60t-14 -75.5q0 -39 14 -73.5t39 -60t59 -40t74 -14.5q41 0 75 14.5t58.5 40t38.5 60.5t16 75q0 81 -36.5 138
t-91 88t-118 34t-118 -24.5t-91 -86t-36.5 -151.5q0 -63 23.5 -118t64.5 -96t96.5 -64.5t118.5 -23.5q64 0 119 23.5t96 64.5t64.5 96t23.5 118q0 64 -23.5 119.5t-64.5 97t-96 65t-119 23.5z" />
    <glyph glyph-name="p" unicode="p" horiz-adv-x="476" 
d="M41 596q-14 0 -14 -14v-245q0 -8 3.5 -10.5t10.5 -2.5h204q34 0 55 24t21 57q0 32 -21 57t-55 25h-99v-125q0 -7 -6.5 -6.5t-6.5 6.5v137h112q40 0 65.5 -27.5t25.5 -66.5q0 -19 -7 -36.5t-19 -30.5t-28.5 -20.5t-36.5 -7.5h-204q-25 0 -25 27v245q0 28 25 28h204
q43 0 80.5 -16t65.5 -43.5t44.5 -65t16.5 -80.5t-16.5 -80.5t-44.5 -65.5t-65.5 -44t-80.5 -16h-99v-172q0 -27 -27 -27h-78q-25 0 -25 27v231q1 9 6 8.5t5 -8.5v-231q0 -14 14 -14h78q14 0 14 14v185h112q40 0 75.5 15t62 41t42 61t15.5 76q0 39 -15.5 74t-42 61t-62 41
t-75.5 15h-204z" />
    <glyph glyph-name="q" unicode="q" horiz-adv-x="666" 
d="M549 107q18 19 31 42t22 49q10 24 15.5 51.5t5.5 53.5q0 65 -24 120t-66 97q-44 43 -100.5 64.5t-115 22t-115 -21t-100.5 -64.5q-55 -57 -76 -135t-4 -156q1 -7 -4 -8t-7 6q-20 81 0.5 162t80.5 140q46 46 105.5 68.5t121.5 22t121 -23.5t104 -69q43 -43 67.5 -99.5
t24.5 -125.5q0 -56 -21 -110q-10 -26 -22.5 -48.5t-30.5 -44.5l41 -48q15 -15 15 -24.5t-17 -22.5l-42 -36q-14 -13 -23.5 -14t-23.5 15l-47 52q-66 -34 -140 -36.5t-136 25t-103 83.5t-42 139q0 55 20 103t54 84t78.5 58.5t91 28t92 -8.5t83.5 -51q26 -26 40 -62t14 -82
q0 -31 -8.5 -61t-26.5 -59l-5 -5l-60 69q-5 5 -9.5 9t-12.5 -4l-55 -45q-8 -7 -6 -12t9 -13l56 -63l-8 -4q-28 -11 -57.5 -13t-58 3.5t-54 18.5t-45.5 34q-32 32 -46.5 78t-10.5 90q1 5 3.5 7.5t5 2.5t4.5 -2.5t1 -7.5q-5 -42 8 -85.5t43 -74.5q37 -35 90 -46t102 6l-44 51
q-11 10 -12.5 20t12.5 21l52 44q15 11 25 6.5t18 -15.5l49 -54q29 52 29 104q0 44 -15 77.5t-38 57.5q-35 35 -78 48t-87 7t-85.5 -28.5t-73.5 -57.5t-51.5 -80.5t-18.5 -97.5t20 -92.5t50.5 -69t72 -45.5t85.5 -21t91 5t88 31l3 2l55 -59q9 -12 13.5 -10.5t12.5 7.5l43 36
q13 11 13 15t-12 17l-44 52l-4 3l4 7v0z" />
    <glyph glyph-name="r" unicode="r" horiz-adv-x="551" 
d="M269 324q30 1 50 25.5t20 55.5t-21 56.5t-56 25.5h-101v-163h71q7 0 6.5 -6.5t-6.5 -7.5h-84v189h114q20 0 36.5 -8t28.5 -21t18.5 -30t6.5 -35q0 -29 -15.5 -54t-45.5 -36q57 -69 113.5 -138.5t112.5 -139.5q13 -12 9 -24.5t-23 -12.5h-92q-14 0 -21 5t-16 16l-150 185
h-63v-179q0 -27 -24 -27h-79q-12 0 -20.5 6.5t-8.5 20.5v555q0 14 8.5 21t20.5 7h204q43 0 80.5 -16.5t66 -44.5t45 -65t16.5 -79q0 -47 -22 -88.5t-60 -68.5q-4 -1 -8.5 2.5t0.5 7.5q36 26 56.5 64.5t20.5 82.5q0 39 -15.5 74t-42 61t-62 41t-75.5 15h-204q-12 0 -12 -14
v-555q0 -14 12 -14h79q11 0 11 14v192h82l156 -191q6 -8 10 -11.5t15 -3.5h92q13 0 11 5.5t-8 10.5z" />
    <glyph glyph-name="s" unicode="s" horiz-adv-x="480" 
d="M235 1q36 0 71 9.5t62.5 29t45 49t20.5 70.5q1 36 -14.5 71.5t-46.5 58.5q-20 15 -44.5 26t-50 20.5t-50.5 19.5t-46 23q-21 14 -40.5 32.5t-30.5 39.5q-22 39 -20 70.5t20.5 53.5t49 34t66 12.5t72 -11.5t66.5 -37q24 -21 41 -52.5t21 -72.5q2 -14 -3 -22.5t-22 -8.5
h-76q-18 0 -23 8.5t-7 21.5q-6 19 -21.5 30.5t-34 15t-38 0.5t-33.5 -13q-10 -6 -14.5 -1.5t6.5 12.5q16 12 39 15.5t44.5 -1t39.5 -18.5t24 -36q2 -8 4.5 -15t13.5 -7h76q9 0 10.5 5t-0.5 14q-3 38 -18 67t-37 47q-27 23 -60.5 34t-66.5 11.5t-61.5 -9.5t-45.5 -29.5
t-19 -47.5t18 -63q11 -22 28.5 -38.5t37.5 -27.5q23 -14 49 -24.5t52 -20.5t50.5 -21t44.5 -27q35 -26 52.5 -66t12.5 -79q-2 -43 -21 -74.5t-49 -52t-67.5 -30.5t-76.5 -10q-42 0 -81 10.5t-69 32.5t-50 54.5t-25 77.5q-1 13 2.5 24t20.5 13h80q15 0 21.5 -9t7.5 -23
q5 -22 25 -34.5t44.5 -16t48.5 1.5t38 18q22 17 16.5 40t-28.5 37q-33 22 -71 34t-74 28t-66.5 42.5t-48.5 77.5q-14 40 -6.5 84t45.5 83q8 8 12 2t-4 -14q-33 -36 -40 -76t7 -78q17 -47 46.5 -71.5t64.5 -39.5t72 -26.5t69 -32.5q29 -20 36.5 -48.5t-18.5 -50.5
q-17 -16 -45.5 -21.5t-57 -1t-51.5 19.5t-29 42q-1 8 -2.5 12.5t-11.5 4.5h-79q-10 0 -10.5 -7t-0.5 -14q6 -41 25 -71.5t47.5 -50t64.5 -29t75 -9.5z" />
    <glyph glyph-name="t" unicode="t" horiz-adv-x="454" 
d="M299 596q-15 0 -15 -14v-555q0 -27 -29 -27h-74q-27 0 -27 27v454h-118q-13 0 -20.5 8.5t-7.5 20.5v72q0 28 28 28h196q7 -2 7 -8t-7 -6h-196q-14 0 -14 -14v-72q0 -14 14 -14h132v-469q0 -14 13 -14h74q16 0 16 14v555q0 28 28 28h102q26 0 26 -28v-72q0 -12 -7 -20.5
t-19 -8.5h-77q-5 0 -5 7.5t5 7.5h77q14 0 14 14v72q0 14 -14 14h-102z" />
    <glyph glyph-name="u" unicode="u" horiz-adv-x="495" 
d="M218 1q9 -1 9 -8t-9 -7q-44 3 -81.5 18t-64.5 40.5t-42 62t-15 82.5v392q0 27 26 27h77q27 0 27 -27v-398q0 -39 11.5 -70t31 -52.5t46.5 -33t59 -10.5q72 4 114.5 51t42.5 121v392q0 13 -13 13h-77q-13 0 -13 -13v-383q0 -24 -6.5 -42t-22.5 -29q-11 -11 -26.5 -17
t-32 -8t-33.5 -0.5t-32 6.5h-2q-7 3 -6 10t9 2h3q13 -4 28.5 -5t31 1t29.5 7t24 13q22 20 22 62v383q0 27 27 27h77q27 0 27 -27v-392q0 -39 -12 -72.5t-34 -57.5t-54 -38.5t-71 -15.5q-34 -2 -63 10t-50.5 35.5t-34 57t-12.5 75.5v398q0 13 -15 13h-77q-5 0 -8.5 -2.5
t-3.5 -10.5v-392q0 -43 14.5 -76.5t39.5 -57.5t59.5 -37.5t75.5 -16.5z" />
    <glyph glyph-name="v" unicode="v" horiz-adv-x="578" 
d="M338 13q14 0 18 14l180 555q4 7 1 10.5t-11 3.5h-84q-14 0 -17 -10l-177 -586q-8 0 -15.5 -0.5t-14 1t-11.5 6t-8 14.5l-180 555q-5 14 0 24t22 10h84q16 0 22.5 -7.5t10.5 -21.5l109 -358q1 -8 -4.5 -10t-6.5 2l-113 364q-2 8 -4.5 12.5t-13.5 4.5h-84q-11 0 -12 -4.5
t2 -12.5l183 -552q2 -11 8.5 -12.5t15.5 -1.5l173 576q3 9 11.5 15t19.5 6h84q15 0 21.5 -9t1.5 -22l-179 -558q-10 -21 -32 -21h-52q-8 0 -8 6.5t8 6.5h52v0z" />
    <glyph glyph-name="w" unicode="w" horiz-adv-x="793" 
d="M42 596q-14 0 -13.5 -6t2.5 -14l154 -541q4 -8 6.5 -15t13.5 -7h94q11 0 13 6.5t6 14.5l56 199q3 7 10 5.5t5 -10.5l-58 -194q-2 -14 -7.5 -24t-24.5 -10h-94q-19 0 -23.5 10t-8.5 24l-154 538q-5 14 -1.5 26t24.5 12h80q14 0 19.5 -7.5t10.5 -20.5l106 -400l73 275
q2 6 9.5 7t9.5 -7l123 -425q2 -8 4 -13.5t13 -5.5h93q11 0 13.5 5t4.5 11l159 553q1 7 -1 10.5t-10 3.5h-81q-8 0 -11 -5t-5 -13l-122 -448l-86 315q-3 7 -12 7h-41q-8 2 -8 7.5t8 5.5h41q9 0 15.5 -4.5t7.5 -13.5l75 -265l109 397q3 13 7.5 22t21.5 9h81q17 0 22 -9t1 -22
l-156 -552q-4 -12 -10.5 -19.5t-22.5 -7.5h-93q-18 0 -23 8.5t-7 20.5l-64 224l-7 26l-48 160l-83 -310l-120 450q-3 8 -5.5 12.5t-10.5 4.5h-80v0z" />
    <glyph glyph-name="x" unicode="x" horiz-adv-x="521" 
d="M308 313h-133l-153 258q-8 14 -6 26.5t25 12.5h90q8 0 16 -4t12 -13l91 -154l82 147q8 11 14 17.5t20 6.5h90q20 0 23 -12t-6 -26l-125 -216q-5 -6 -10 -2.5t-1 8.5l126 216q3 8 4.5 13t-11.5 5h-90q-10 0 -12.5 -4.5t-6.5 -12.5l-95 -156l-2 -10l-10 10l-93 163
q-7 10 -16 10h-90q-14 0 -11 -6l7 -14l146 -250h132l167 -289q9 -15 6.5 -26t-23.5 -11h-90q-19 0 -28 16l-97 170l-96 -165q-7 -11 -14 -16t-21 -5h-87q-24 0 -24.5 13.5t7.5 28.5l142 242q2 4 8 2t5 -7l-143 -244q-2 -3 -4.5 -6.5t-3 -7t2 -6t10.5 -2.5h87q10 0 13.5 3
t6.5 11l111 184l109 -189q7 -9 16 -9h90q13 0 10.5 6.5t-4.5 12.5z" />
    <glyph glyph-name="y" unicode="y" horiz-adv-x="544" 
d="M396 596q-13 0 -21 -17l-115 -209l-117 209q-7 17 -21 17h-91q-7 0 -8.5 -3t0 -6.5t4 -7.5t4.5 -7l175 -298h119v-247q0 -27 -28 -27h-76q-27 0 -27 27v194q0 7 6 8t6 -8v-194q0 -14 15 -14h76q14 0 14 14v233h-112l-181 306q-9 17 -9.5 30.5t22.5 13.5h91
q15 0 21.5 -6.5t11.5 -17.5l105 -188l103 188q7 10 13 17t20 7h88q21 0 23 -12.5t-6 -26.5l-153 -264q-6 -4 -10.5 -1t0.5 9l151 263q4 8 6 13t-11 5h-88z" />
    <glyph glyph-name="z" unicode="z" horiz-adv-x="461" 
d="M400 493q5 6 8 12.5t3 16.5v60q0 14 -14 14q-8 0 -8 7t8 7q27 0 27 -28v-60q0 -13 -4 -20.5t-11 -16.5l-227 -358h220q14 0 21 -8t7 -22v-70q0 -27 -28 -27h-362q-28 0 -28 27v58q0 11 3 18t6 15l307 478h-284q-6 0 -10.5 -3t-4.5 -11v-72q0 -7 4.5 -10.5t10.5 -3.5h173
q6 0 6 -6t-6 -9h-173q-12 0 -19 8.5t-7 20.5v72q0 28 26 28h309l-317 -496q-5 -8 -7 -14t-2 -15v-58q0 -8 2.5 -11t10.5 -3h362q15 0 15 14v70q0 15 -15 15h-229q-5 0 -7.5 5t0.5 10z" />
    <glyph glyph-name="O" unicode="O" horiz-adv-x="678" 
d="M341 2q8 0 8 -6.5t-8 -6.5q-66 0 -124.5 24.5t-101.5 67t-68 100.5t-25 124q0 67 25 125t68 101t101.5 67.5t124.5 24.5t124 -24.5t100.5 -67.5t67 -101t24.5 -125q0 -73 -22.5 -125.5t-59 -86t-83.5 -48.5t-95.5 -12.5t-95 22t-82.5 54t-57.5 84.5t-20.5 114
q1 43 16 79.5t41.5 63.5t62.5 42.5t80 15.5q43 0 80 -15.5t63 -42.5t41 -64.5t15 -80.5q0 -44 -15 -80t-41 -64q-28 -28 -64.5 -43t-78.5 -15h-2q-9 2 -9 7.5t9 5.5h2q39 0 73.5 15t59.5 39q25 25 38.5 60t13.5 75q0 41 -13.5 75.5t-38.5 60t-59 40t-74 14.5
q-41 0 -75.5 -14.5t-59.5 -40t-39 -60t-14 -75.5q0 -81 36 -138t90.5 -87.5t118 -34t118 23.5t91 85.5t36.5 150.5q0 64 -23.5 119.5t-64 96.5t-95.5 64.5t-119 23.5t-119.5 -23.5t-97 -64.5t-65 -96.5t-23.5 -119.5t23.5 -119t65 -96t97 -64.5t119.5 -23.5z" />
    <glyph glyph-name="one" unicode="1" horiz-adv-x="333" 
d="M22 527q-9 -5 -9 -16v-75q0 -10 4 -11.5t9 3.5l125 68h119v-469q0 -27 -27 -27h-78q-26 0 -26 27v400q0 7 6 7t6 -7v-400q0 -14 14 -14h78q14 0 14 14v457h-103v-1l-119 -67q-15 -9 -25 -2.5t-10 22.5v75q0 8 4 16t12 12l113 63q9 2 15 3.5t15 1.5h84q27 0 27 -26v-42
q0 -12 -6.5 -12t-6.5 12v42q0 14 -14 14h-84q-8 0 -12.5 -0.5t-9.5 -4.5z" />
    <glyph glyph-name="two" unicode="2" horiz-adv-x="444" 
d="M28 13h358q14 0 14 14v71q0 14 -14 14h-221l13 11q22 21 49 46t53 52.5t49.5 56t37.5 56.5t19.5 59.5t1.5 62.5t-18.5 59t-40.5 49q-5 4 -1.5 9t10.5 2q28 -22 44 -52.5t20.5 -64t-1.5 -67.5t-22 -63q-13 -27 -34.5 -54.5t-47 -53.5t-51.5 -50t-48 -45h188q27 0 27 -27
v-71q0 -27 -27 -27h-358q-27 0 -27 27v51q0 14 4.5 21t12.5 15q21 20 49.5 47t59.5 58t61.5 64t56 65.5t42 63.5t19.5 58q4 33 -3 57.5t-22 41.5t-36.5 26t-46.5 10q-36 4 -68 -7.5t-56 -33.5t-39 -53t-18 -66q-2 -7 -0.5 -12t11.5 -5h75q11 0 13 5.5t5 13.5q6 29 26 42
q13 10 31.5 14.5t36.5 2.5t34 -10.5t25 -24.5q3 -5 -2 -7.5t-7 -0.5q-8 14 -22 21.5t-30 9t-31.5 -2t-27.5 -10.5q-8 -8 -13.5 -16t-7.5 -20q-3 -13 -7.5 -22.5t-22.5 -9.5h-75q-15 0 -21 9.5t-5 22.5q4 37 20 69.5t41.5 56.5t59 37.5t72.5 13.5q28 -2 52.5 -12t42 -29.5
t26 -47t4.5 -63.5q-4 -28 -21.5 -60.5t-43.5 -67t-57 -68.5t-62 -65t-59 -58t-47 -47q-8 -6 -11.5 -10.5t-3.5 -15.5v-51q0 -14 13 -14z" />
    <glyph glyph-name="three" unicode="3" horiz-adv-x="476" 
d="M402 520v61q0 14 -15 14h-334q-15 0 -15 -14v-68q0 -13 15 -13h214h14l-8 -11l-101 -132q-3 -7 -5 -11.5t-2 -9.5v-45q0 -13 14 -13q10 0 10 -7.5t-10 -7.5q-13 0 -19.5 8.5t-6.5 19.5v45q0 15 9 27l91 123h-200q-13 0 -21.5 8t-8.5 19v68q0 14 8.5 20t21.5 6h334
q28 0 28 -26v-61q0 -14 -4 -20.5t-11 -15.5l-157 -206q35 -4 58 -26.5t23 -60.5q0 -47 -30 -68t-72 -21q-34 0 -61.5 14.5t-37.5 46.5q-2 8 -3.5 13.5t-11.5 5.5h-79q-12 0 -12.5 -6.5t1.5 -14.5q5 -39 23 -69t46 -50t62.5 -30t72.5 -10q43 0 81 12.5t65.5 36.5t43.5 59.5
t16 80.5q0 30 -9 55t-26 48q-12 14 -27 26.5t-35 21.5q-5 4 -2.5 8t9.5 3q39 -20 67 -52q17 -21 27 -49.5t10 -60.5q0 -48 -17.5 -85.5t-47.5 -64t-70 -40t-85 -13.5q-41 0 -78 11t-66 32.5t-48.5 54t-25.5 74.5q-2 14 1.5 24.5t20.5 11.5h82q15 0 20 -10t10 -21
q8 -27 32.5 -38t51.5 -11q36 0 62 17.5t26 57.5q0 39 -26 55.5t-62 16.5l1 12l164 216q7 8 11 13t4 16z" />
    <glyph glyph-name="four" unicode="4" horiz-adv-x="539" 
d="M467 210h-51v127q0 14 -14 14h-76q-14 0 -14 -14v-127h-114q-7 -2 -7.5 5t7.5 8h101v114q0 26 27 26h76q28 0 28 -26v-114h37q12 0 18.5 -8t6.5 -19v-70q0 -11 -6.5 -19t-18.5 -8h-37v-72q0 -27 -28 -27h-76q-27 0 -27 27v72h-210q-5 0 -8 3.5t0 9.5l237 463q5 8 6.5 14
t-9.5 6h-85q-9 0 -12 -4.5t-7 -11.5l-180 -350q-7 -10 -7 -25v-78q0 -5 3 -8.5t9 -3.5q10 0 10 -7.5t-10 -7.5q-13 0 -19.5 8t-6.5 19v78q0 9 1 16.5t5 16.5l181 346q5 11 12 17.5t21 6.5h85q17 0 21.5 -11t-3.5 -25l-236 -457h215v-87q0 -14 14 -14h76q14 0 14 14v87h51
q6 0 8.5 3.5t2.5 8.5v70q0 14 -11 14z" />
    <glyph glyph-name="five" unicode="5" horiz-adv-x="480" 
d="M215 378q-11 0 -11 7.5t11 7.5q49 0 90.5 -11.5t77.5 -45.5q58 -52 58 -145q0 -48 -17 -85.5t-47 -64t-70 -40t-85 -13.5q-40 0 -77 11t-66.5 32.5t-49 53t-25.5 72.5q-2 16 2 27.5t22 11.5h78q20 0 23.5 -12.5t9.5 -26.5q11 -24 34.5 -32.5t48.5 -8.5q35 0 61.5 17.5
t26.5 57.5q0 39 -26.5 55.5t-61.5 16.5h-77q4 60 9 118.5t8 118.5h225q14 0 14 13v68q0 14 -14 14h-308q-14 0 -14 -12l-22 -286q0 -10 1.5 -14.5t11.5 -4.5h42q8 0 8 -7.5t-8 -7.5h-42q-16 0 -22 10t-4 24l22 286q0 12 7.5 18t19.5 6h308q12 0 19.5 -6t7.5 -20v-68
q0 -11 -7.5 -19t-19.5 -8h-213q-5 -53 -7.5 -104.5t-6.5 -103.5h62q42 0 72.5 -21t30.5 -66q0 -47 -30.5 -68t-72.5 -21q-29 0 -56.5 11.5t-40.5 40.5l-4.5 18t-14.5 10h-78q-12 0 -12.5 -6t1.5 -15q5 -39 23.5 -69t46.5 -50t62.5 -30t72.5 -10q42 0 79.5 12.5t65.5 36.5
t44.5 59.5t16.5 80.5q0 43 -15 77.5t-40 57.5q-32 31 -72.5 41.5t-85.5 10.5z" />
    <glyph glyph-name="six" unicode="6" horiz-adv-x="470" 
d="M336 595h-92q-8 0 -11.5 -4.5t-8.5 -11.5q-18 -26 -48.5 -69.5t-61.5 -90.5t-56.5 -89.5t-31.5 -66.5q-12 -35 -10.5 -72.5t15.5 -67.5q16 -39 51.5 -63t88.5 -22q42 1 73 20t49.5 46t24 59t-1.5 60t-28 47t-55 21q-18 2 -36 -3t-32.5 -16.5t-23 -29.5t-8.5 -41
q0 -26 10 -44t26 -29t36 -14.5t39 0.5q7 2 10 -4t-5 -11q-23 -3 -45.5 1.5t-41 17t-30 33.5t-11.5 50q0 27 9.5 47t25 32.5t35.5 18.5t40 5q40 -1 64 -22t33 -51.5t2.5 -66.5t-26.5 -66.5t-54.5 -51.5t-81.5 -22q-56 -2 -93.5 24.5t-55.5 67.5q-15 33 -16.5 72t9.5 80
q5 16 18 41t31 54t39 60.5t41.5 61t39 55.5t31.5 45q7 11 13 16.5t19 5.5h92q21 0 24 -12t-8 -26l-108 -154q46 -3 83.5 -20t64.5 -45t42 -66t15 -83q0 -49 -17 -88.5t-47 -67t-70.5 -42.5t-87.5 -15h-18.5t-19.5 2q-4 1 -3.5 7t7.5 6q10 -1 17.5 -1h16.5q45 0 83 14
t66.5 39.5t44.5 62.5t16 83q0 45 -15.5 81.5t-42.5 63t-64.5 41t-81.5 16.5h-12l118 170q1 3 3.5 7t3.5 7t-1 5.5t-9 2.5z" />
    <glyph glyph-name="seven" unicode="7" horiz-adv-x="416" 
d="M13 581v-70q0 -13 14 -13h190q5 -2 5 -7t-5 -7h-190q-13 0 -20 7.5t-7 19.5v70q0 26 27 26h293q-60 -144 -118 -286.5t-117 -287.5q-3 -8 -3.5 -14t10.5 -6h80q11 0 13.5 4.5t6.5 13.5l186 457q4 8 5 13.5t1 14.5v65q0 14 -14 14h-23q-6 2 -6.5 6t6.5 6h23q27 0 27 -26
v-65q0 -9 -1.5 -16t-4.5 -16l-187 -457q-4 -14 -10 -20.5t-22 -6.5h-80q-19 0 -23 11t2 26q57 140 113.5 279t114.5 279h-272q-14 0 -14 -14z" />
    <glyph glyph-name="eight" unicode="8" horiz-adv-x="476" 
d="M409 439q0 41 -15 72t-40.5 52t-59 31.5t-71.5 10.5q-39 0 -73.5 -10.5t-60 -31.5t-40.5 -52t-15 -72q0 -73 58 -117l11 -6l-11 -5q-38 -23 -58 -58.5t-20 -80.5t17 -77t46 -53t66.5 -30.5t79.5 -9.5q40 0 77 9.5t65.5 30.5t45.5 53t17 77q0 64 -42 109q-8 10 -3 13.5
t13 -4.5q24 -25 35.5 -55t11.5 -63q0 -48 -18 -83t-48.5 -57.5t-70.5 -33t-83 -10.5q-45 0 -85 10.5t-71 33t-49 57.5t-18 83q0 93 77 146q-29 23 -43.5 54.5t-14.5 66.5q0 43 16 77t43.5 57t64.5 35t80 12q40 0 76.5 -12t64 -35t43.5 -57t16 -77q0 -48 -18.5 -78t-46.5 -45
t-62.5 -15.5t-65.5 11t-55.5 33.5t-33.5 53q-14 47 8.5 80t73.5 33q33 0 58 -19.5t25 -57.5q0 -37 -25 -57t-58 -20q-8 0 -8.5 5t8.5 6q29 0 48.5 17.5t19.5 48.5q0 30 -19.5 47t-48.5 17q-44 0 -62 -28.5t-6 -66.5q8 -27 30 -47t50 -30.5t59 -10.5t56.5 13t42 40t16.5 71z
M223 98q-44 0 -74.5 21.5t-30.5 67.5q0 45 30.5 67t74.5 22q20 0 38.5 -5.5t32.5 -17t22 -28t8 -38.5q0 -23 -8 -39.5t-22 -27.5t-32.5 -16.5t-38.5 -5.5zM223 112q33 0 60.5 18.5t27.5 56.5q0 20 -7.5 34t-20 23t-28.5 13.5t-32 4.5q-38 0 -65.5 -17.5t-27.5 -57.5
q0 -38 27.5 -56.5t65.5 -18.5z" />
    <glyph glyph-name="nine" unicode="9" horiz-adv-x="480" 
d="M223 183l-111 -161q-2 -3 -4.5 -6.5t-3.5 -6.5t0.5 -5t9.5 -2h88q11 0 15.5 4t9.5 11q11 18 29 44t38.5 56t41.5 62t39 61.5t31 54t18 39.5q12 41 9 82t-21.5 73t-52.5 51.5t-83 16.5q-42 -2 -72 -20.5t-48 -45.5t-24 -58.5t1.5 -59t28 -46t55.5 -20.5q34 -3 56.5 11
t32.5 35.5t8.5 47t-14 46t-36.5 32t-58 5.5q-8 -1 -10 4t4 10q40 7 67.5 -6t43 -36.5t18 -52.5t-9 -54t-36.5 -41t-65 -14q-40 1 -64 22t-33 51.5t-3 65.5t26 65.5t54 51t81 21.5q53 1 89 -19.5t56 -55t23.5 -78.5t-9.5 -88q-7 -25 -32 -67t-55.5 -88.5t-61 -90.5t-48.5 -73
q-8 -11 -15 -17t-24 -6h-88q-24 0 -26 13t11 30l107 151q-45 3 -82.5 20t-65 45t-42.5 65.5t-15 82.5q0 55 21 97.5t56.5 70t82.5 38.5t99 4q5 -1 3 -7t-8 -6q-48 6 -92 -4.5t-77 -36t-52.5 -65t-19.5 -91.5q0 -45 15 -81t42 -62t64.5 -40.5t81.5 -15.5l13 -1z" />
    <glyph glyph-name="zero" unicode="0" horiz-adv-x="531" 
d="M295 6q7 2 9.5 -3t-3.5 -10q-77 -17 -133.5 5t-93.5 68t-55 109t-18 129q0 59 13 115.5t42 101t75.5 72t113.5 27.5t114 -27.5t76.5 -72t42.5 -101t13 -115.5q0 -51 -9.5 -101t-34.5 -91q-27 -53 -69 -70.5t-86 -8t-83.5 40.5t-61.5 75q-8 15 -14 35t-9.5 41t-5 41.5
t-1.5 37.5q0 31 5 66.5t19 65.5t39 50t65 20q41 0 66.5 -20t39.5 -50t19 -65.5t5 -66.5q0 -32 -5 -67.5t-19 -65.5t-39.5 -49.5t-66.5 -19.5q-5 0 -5 7t5 7q37 0 60 18.5t35 46.5t16 61t4 62t-4 62.5t-16 62t-35 47.5t-60 19t-59 -19t-34 -47.5t-15.5 -62t-3.5 -62.5
q0 -16 1.5 -36t4.5 -41t8.5 -40.5t13.5 -34.5q21 -39 57 -67.5t75.5 -37.5t78 6t64.5 63q22 42 32 91t10 97q0 56 -12.5 110t-40.5 96.5t-72 68.5t-108 26t-108 -26t-71 -68.5t-39 -96.5t-12 -110q0 -62 16 -121.5t50.5 -104t87 -66t126.5 -6.5z" />
    <glyph glyph-name="period" unicode="." horiz-adv-x="179" 
d="M138 58q0 5 -3.5 9t-11.5 4h-16q-5 0 -5 6t5 8h16q14 0 20.5 -8t6.5 -19v-31q0 -27 -27 -27h-82q-11 0 -19 6.5t-8 20.5v82q0 11 8 19t19 8h82q14 0 20.5 -8t6.5 -19v-10q0 -5 -6 -4.5t-6 4.5v10q0 13 -15 13h-82q-12 0 -12 -13v-82q0 -14 12 -14h82q15 0 15 14v31z" />
    <glyph glyph-name="comma" unicode="," horiz-adv-x="177" 
d="M127 122h-13q-6 0 -6 7t6 7h13q11 0 18 -8t7 -19v-103q0 -54 -29 -85q-24 -30 -76 -39q-11 -2 -20.5 2.5t-9.5 18.5v20q0 11 7 15t17 8q20 5 26 19.5t8 34.5v122h-29q-15 0 -15 -13v-82q0 -14 15 -14h9q5 0 5 -6.5t-5 -6.5h-9q-29 0 -29 27v82q0 11 7.5 19t21.5 8h43
v-136q-1 -25 -10 -43t-33 -24q-6 -2 -10.5 -3t-4.5 -7v-20q0 -7 5 -7.5t10 -0.5q46 8 68 36q13 14 18 32.5t5 42.5v103q0 13 -10 13z" />
    <glyph glyph-name="quotesingle" unicode="'" horiz-adv-x="179" 
d="M120 595h-12q-7 0 -7 6t7 6h12q13 0 21 -6t8 -20v-98q0 -51 -27.5 -84.5t-77.5 -40.5q-13 -1 -21 2t-8 20v17q0 16 7.5 19t18.5 5q6 5 11.5 8t7.5 8q8 13 9 25.5t1 25.5v107h-29q-14 0 -14 -14v-80q0 -13 14 -13h11q4 0 4 -7t-4 -7h-11q-14 0 -20 8t-6 19v80q0 26 26 26
h42v-118q0 -14 -1.5 -30t-10.5 -29q-4 -8 -10 -12t-13 -8q-7 -3 -14 -3.5t-7 -9.5v-17q0 -10 5 -10.5t9 1.5q45 8 69.5 36t24.5 76v98q0 7 -4.5 10.5t-10.5 3.5z" />
    <glyph glyph-name="semicolon" unicode=";" horiz-adv-x="185" 
d="M125 122h-13q-7 0 -7 7t7 7h13q13 0 19.5 -8t6.5 -19v-103q0 -56 -30 -85q-24 -29 -73 -39q-14 -2 -22.5 2.5t-8.5 18.5v20q0 13 7 16t18 7q7 4 13 6.5t10 7.5q8 12 9 25.5t1 27.5v109h-31q-14 0 -14 -13v-82q0 -14 14 -14h9q6 0 6 -6.5t-6 -6.5h-9q-27 0 -27 27v82
q0 11 7 19t20 8h44v-130q0 -14 -2 -27t-8 -24q-8 -9 -14.5 -14.5t-17.5 -7.5q-7 -2 -11.5 -3t-4.5 -7v-20q0 -9 5.5 -8.5t10.5 0.5q22 5 39 13.5t27 22.5q26 29 26 75v103q0 13 -13 13zM138 362q0 14 -13 14h-19q-3 0 -3 5t3 7h19q26 0 26 -26v-30q0 -28 -26 -28h-81
q-27 0 -27 28v81q0 26 27 26h81q26 0 26 -26v-9q0 -5 -6.5 -5t-6.5 5v9q0 14 -13 14h-81q-14 0 -14 -14v-81q0 -14 14 -14h81q13 0 13 14v30z" />
    <glyph glyph-name="colon" unicode=":" horiz-adv-x="175" 
d="M136 58q0 5 -3 9t-11 4h-15q-5 0 -5.5 6t5.5 8h15q13 0 20.5 -8t7.5 -19v-31q0 -27 -28 -27h-80q-12 0 -19.5 6.5t-7.5 20.5v82q0 11 7.5 19t19.5 8h80q13 0 20.5 -8t7.5 -19v-10q0 -5 -7 -4.5t-7 4.5v10q0 13 -14 13h-80q-13 0 -13 -13v-82q0 -14 13 -14h80q14 0 14 14
v31zM136 362q0 14 -14 14h-15q-5 0 -5.5 5t5.5 7h15q28 0 28 -26v-30q0 -28 -28 -28h-80q-12 0 -19.5 7t-7.5 21v81q0 11 7.5 18.5t19.5 7.5h80q13 0 20.5 -7.5t7.5 -18.5v-9q0 -5 -7 -5t-7 5v9q0 5 -3 9.5t-11 4.5h-80q-13 0 -13 -14v-81q0 -14 13 -14h80q14 0 14 14v30z
" />
    <glyph glyph-name="quotedbl" unicode="&#x22;" horiz-adv-x="342" 
d="M122 595h-12q-7 0 -7 6t5 6h14q11 0 18.5 -6t7.5 -20v-98q0 -55 -28 -86q-30 -33 -78 -39q-11 -1 -19.5 1.5t-10.5 16.5v4v17q0 14 7 18t18 6q20 5 26 19t6 34v14v107h-29q-14 0 -14 -14v-80q0 -13 14 -13h10q4 0 5 -7t-5 -7h-10q-13 0 -20.5 8t-7.5 19v80q0 26 28 26h43
v-124q0 -26 -8 -46.5t-35 -27.5q-5 -2 -9.5 -3.5t-4.5 -8.5v-17v-2q0 -8 4.5 -8.5t9.5 1.5q46 8 68 33q13 14 20 33.5t7 45.5v98q0 14 -13 14zM278 595h-12q-7 0 -7 6t7 6h12q29 0 29 -26v-98q0 -53 -30 -86q-15 -16 -33.5 -26t-43.5 -13q-12 -1 -20 3t-8 19v17q0 16 8.5 19
t17.5 5q22 9 25.5 28t3.5 39v107h-29q-12 0 -12 -14v-80q0 -13 12 -13h10q4 0 4.5 -7t-4.5 -7h-10q-12 0 -19 8t-7 19v80q0 26 26 26h43v-124q0 -26 -7 -45.5t-30 -27.5q-6 -3 -12 -4.5t-6 -8.5v-17q0 -9 3.5 -10t8.5 1q46 8 68 33q13 14 20 33.5t7 45.5v98q0 14 -15 14z
" />
    <glyph glyph-name="exclam" unicode="!" horiz-adv-x="170" 
d="M133 58q0 5 -2.5 9t-9.5 4h-17q-5 0 -5 6t5 8h17q12 0 19.5 -8t7.5 -19v-31q0 -14 -7.5 -20.5t-19.5 -6.5h-81q-27 0 -27 27v82q0 11 7.5 19t19.5 8h81q12 0 19.5 -8t7.5 -19v-10q0 -5 -7.5 -4.5t-7.5 4.5v10q0 13 -12 13h-81q-15 0 -15 -13v-82q0 -14 15 -14h81
q12 0 12 14v31zM139 531q0 13 -12 13h-18q-5 0 -5 6.5t5 6.5h18q26 0 26 -26v-98l-20 -204q-1 -14 -6.5 -21.5t-22.5 -7.5h-50q-17 0 -22 7.5t-5 21.5l-20 204v148q0 26 25 26h95q26 0 26 -26v-6q0 -7 -7 -6t-7 6v6q0 14 -12 14h-95q-12 0 -12 -14v-148l22 -202
q0 -7 1.5 -12t10.5 -5h50q11 0 13 3.5t4 11.5l18 204v98z" />
    <glyph glyph-name="braceleft" unicode="{" horiz-adv-x="281" 
d="M245 -65v65q0 11 -8.5 11t-14.5 2q-27 3 -36.5 19t-9.5 41v127q0 17 -3.5 37t-14.5 36q-2 4 3.5 7t7.5 -1q11 -17 16.5 -38t5.5 -41v-127q0 -20 5.5 -32t25.5 -14q14 -2 25 -4.5t11 -22.5v-65q0 -17 -9 -22.5t-24 -5.5q-79 2 -119 44t-42 120v129q0 13 -1.5 22t-6.5 15
q-7 7 -16.5 8t-18.5 2.5t-15 7t-6 20.5v39h123q15 0 25.5 11t16.5 26.5t8.5 32.5t2.5 29v125q0 28 12.5 44.5t41.5 16.5q15 0 15 13v64q0 13 -9 13h-17q-71 -2 -105 -40t-36 -110q0 -1 1 0t1 -1v-125q0 -28 -12 -44t-41 -18q-5 2 -5 6.5t5 5.5q24 2 30.5 14.5t6.5 35.5v125
v1q2 76 39.5 119t113.5 45q14 2 27.5 -2.5t13.5 -24.5v-64q0 -15 -8 -21t-22 -8q-22 0 -29.5 -11.5t-7.5 -33.5v-125q0 -16 -3.5 -35.5t-11.5 -36.5t-21 -28.5t-32 -11.5h-110v-26q0 -9 5 -11.5t12.5 -3.5t16.5 -3.5t17 -10.5q16 -13 16 -46l-2 -129q2 -73 37 -110.5
t110 -39.5q6 0 13 1.5t7 12.5z" />
    <glyph glyph-name="braceright" unicode="}" horiz-adv-x="298" 
d="M16 676v-64q0 -13 8 -13t14 -2q29 -2 38 -19t9 -40v-125q0 -19 3 -39t14 -34q3 -5 -3 -9t-9 1q-11 17 -14.5 37.5t-3.5 43.5v125q0 18 -6.5 30.5t-27.5 14.5q-13 2 -23.5 5.5t-12.5 23.5v64q0 18 10 23.5t23 3.5q79 0 119 -43t40 -121v-126q0 -15 3 -24t8 -14
q6 -7 15.5 -8t18.5 -3t15.5 -7t6.5 -20v-40h-123q-15 0 -25.5 -11t-16.5 -26t-8.5 -31.5t-2.5 -28.5v-127q0 -17 -4 -28.5t-9 -17.5q-8 -10 -18 -12t-24 -2t-14 -17v-61q0 -14 8 -14h16q35 2 60.5 11t43.5 26q38 38 38 113v2v127q0 28 10.5 43t39.5 17q5 0 5.5 -6t-5.5 -8
q-22 -1 -30 -13.5t-8 -32.5v-127v-2q0 -39 -9.5 -70t-29.5 -50q-37 -41 -112 -44q-15 -1 -28 3t-13 25v61q0 16 8 23.5t21 7.5q21 0 29 8q12 10 12 38v127q0 15 3 34t10.5 36.5t20 29t31.5 11.5h112v26q0 9 -5.5 11t-14 3t-18 2.5t-17.5 9.5q-7 9 -9.5 20t-2.5 30v126
q0 72 -36.5 111t-110.5 39q-7 0 -13 -1t-6 -12z" />
    <glyph glyph-name="bracketleft" unicode="[" horiz-adv-x="261" 
d="M205 588q15 0 15 14v66q0 14 -15 14h-161q-14 0 -14 -14v-80h111v-555h64q14 0 21.5 -7.5t7.5 -19.5v-66q0 -12 -7.5 -20t-21.5 -8h-161q-14 0 -20.5 8t-6.5 20v599q0 9 6.5 8.5t6.5 -8.5v-599q0 -13 14 -13h161q15 0 15 13v66q0 13 -15 13h-78v556h-110v93q0 12 6.5 20
t20.5 8h161q14 0 21.5 -8t7.5 -20v-66q0 -27 -29 -27h-20q-6 0 -6 6.5t6 6.5h20z" />
    <glyph glyph-name="bracketright" unicode="]" horiz-adv-x="263" 
d="M37 19q-13 0 -13 -13v-66q0 -13 13 -13h163q13 0 13 13v79h-111v556h-65q-27 0 -27 27v66q0 12 7 20t20 8h163q13 0 19.5 -8t6.5 -20v-598q0 -11 -5.5 -10t-7.5 10v598q0 14 -13 14h-163q-13 0 -13 -14v-66q0 -14 13 -14h79v-555h110v-93q0 -12 -6.5 -20t-19.5 -8h-163
q-13 0 -20 8t-7 20v66q0 12 7 19.5t20 7.5h21q7 0 7 -7t-7 -7h-21z" />
    <glyph glyph-name="underscore" unicode="_" horiz-adv-x="448" 
d="M388 -105q0 14 -13 14h-18q-5 0 -5 7t5 7h18q12 0 19.5 -7.5t7.5 -20.5v-15q0 -14 -7.5 -20.5t-19.5 -6.5h-346q-26 0 -26 27v66q0 26 26 26h346q12 0 19.5 -7t7.5 -19v-6q0 -7 -7 -5.5t-7 5.5v6q0 12 -13 12h-346q-15 0 -15 -12v-66q0 -12 15 -12h346q13 0 13 12v15z
" />
    <glyph glyph-name="plus" unicode="+" horiz-adv-x="444" 
d="M381 348h-229v129q0 25 27 25h61q12 0 19.5 -5.5t7.5 -19.5v-85q0 -5 -7 -5t-7 5v85q0 12 -13 12h-61q-14 0 -14 -12v-115h216q28 0 28 -26v-61q0 -29 -28 -29h-114v-114q0 -12 -7.5 -19.5t-19.5 -7.5h-61q-14 0 -20.5 7.5t-6.5 19.5v114h-115q-27 0 -27 29v61
q0 26 27 26h72q6 0 6.5 -7t-8.5 -7h-70q-13 0 -13 -12v-61q0 -9 2.5 -12t10.5 -3h128v-128q0 -12 14 -12h61q13 0 13 12v128h128q8 0 11 3t3 12v61q0 12 -14 12z" />
    <glyph glyph-name="hyphen" unicode="-" horiz-adv-x="367" 
d="M334 246q0 12 -10 12h-18q-5 0 -5.5 7.5t5.5 7.5h18q11 0 17 -7.5t6 -19.5v-17q0 -28 -23 -28h-282q-11 0 -19 7t-8 21v67q0 13 8 19.5t19 6.5h282q23 0 23 -26v-6q0 -8 -6.5 -6.5t-6.5 6.5v6q0 12 -10 12h-282q-11 0 -11 -12v-67q0 -13 11 -13h282q10 0 10 13v17z" />
    <glyph glyph-name="equal" unicode="=" horiz-adv-x="410" 
d="M378 378q0 14 -13 14h-17q-4 0 -5 5.5t5 6.5h17q12 0 20 -6.5t8 -19.5v-18q0 -11 -8 -18.5t-20 -7.5h-328q-14 0 -22 7.5t-8 18.5v68q0 13 8 20t22 7h328q12 0 20 -7t8 -20v-8q-3 -5 -8.5 -4.5t-6.5 4.5v8q0 14 -13 14h-328q-15 0 -15 -14v-68q0 -12 15 -12h328
q13 0 13 12v18zM378 198q0 13 -13 13h-17q-4 0 -5 6t5 8h17q12 0 20 -7.5t8 -19.5v-18q0 -11 -8 -18.5t-20 -7.5h-328q-14 0 -22 7.5t-8 18.5v68q0 11 8 19.5t22 8.5h328q12 0 20 -8.5t8 -19.5v-7q-3 -6 -8.5 -5.5t-6.5 5.5v7q0 14 -13 14h-328q-15 0 -15 -14v-68
q0 -14 15 -14h328q13 0 13 14v18z" />
    <glyph glyph-name="question" unicode="?" horiz-adv-x="453" 
d="M179 214h76q11 0 14 5.5t7 13.5q7 19 21 34.5t32 31.5q14 14 28.5 29t26.5 33t19.5 39t7.5 47q0 36 -13.5 64.5t-36 48.5t-53 31.5t-63.5 13.5q-6 0 -7 7.5t7 7.5q36 -2 68.5 -15t57 -35.5t39.5 -53.5t15 -69q0 -29 -8 -51.5t-20.5 -41.5t-28 -34.5t-31.5 -29.5
q-16 -16 -29 -30t-21 -31q-4 -11 -8.5 -20t-23.5 -9h-76q-17 0 -23 9.5t-4 23.5q9 36 32.5 62.5t47.5 49.5q46 43 56.5 89.5t-4.5 83t-51.5 57.5t-85.5 13q-25 -3 -46 -16t-37 -32t-25.5 -43t-11.5 -49q-2 -8 0 -13t13 -5h77q9 0 11 5.5t4 12.5q5 20 18.5 32.5t30.5 19t36 7
t36 -4.5q8 -2 6.5 -8t-7.5 -5q-14 4 -30.5 4t-31.5 -5t-27 -16t-17 -27q-4 -11 -8 -20t-21 -9h-77q-18 0 -23.5 10.5t-4.5 23.5q3 28 14 53.5t28 46t40.5 34t51.5 18.5q53 9 93.5 -14t57.5 -63.5t6.5 -91.5t-59.5 -97q-26 -22 -48 -46.5t-29 -58.5q-2 -7 -0.5 -12t12.5 -5z
M266 58q0 5 -3 9t-11 4h-18q-4 0 -4 6t4 8h18q14 0 21 -8t7 -19v-31q0 -27 -28 -27h-82q-26 0 -26 27v82q0 11 6 19t20 8h82q14 0 21 -8t7 -19v-10q0 -5 -7 -4.5t-7 4.5v10q0 13 -14 13h-82q-11 0 -11 -13v-82q0 -14 11 -14h82q14 0 14 14v31z" />
    <glyph glyph-name="parenleft" unicode="(" horiz-adv-x="232" 
d="M117 -73h67q4 0 5.5 1t3.5 1l1 2q3 2 3 4q0 1 -1.5 2.5t-1.5 3.5q-41 87 -62 177t-21 186q0 69 11 135t34 130q2 9 9 8.5t6 -8.5q-46 -126 -46 -265q0 -95 21 -183.5t59 -171.5q2 -6 3.5 -9t1.5 -5q0 -5 -5 -12q0 -4 -6 -6l-7 -3.5t-8 -1.5h-67q-11 0 -17.5 6t-10.5 15
q-43 88 -66 181t-23 190q0 100 23 191t66 181q8 20 28 20h67q16 0 22.5 -11t-1.5 -25q-5 -13 -10.5 -26.5t-12.5 -28.5h-50q-4 0 -4 7.5t4 7.5h42q5 11 10 23l10 24q4 7 1 11t-11 4h-67q-12 0 -18 -12q-40 -88 -62.5 -178.5t-22.5 -187.5t22.5 -187.5t62.5 -178.5
q6 -11 18 -11z" />
    <glyph glyph-name="numbersign" unicode="#" horiz-adv-x="514" 
d="M472 420h-76l18 114q1 7 1 12t-12 5h-45q-11 0 -13.5 -4.5t-4.5 -12.5l-17 -114h-99l17 119q3 12 -12 12h-46q-9 0 -12 -4.5t-4 -10.5l-20 -118l-81 2q-11 0 -12.5 -4.5t-3.5 -12.5l-6 -38q-2 -6 0.5 -11.5t10.5 -5.5h80l-13 -88h-81q-11 0 -13.5 -5.5t-3.5 -13.5l-4 -31
q-1 -8 -0.5 -13.5t9.5 -5.5h80l-20 -121q-3 -14 12 -14h46q11 0 13 5.5t4 13.5l19 116h101l-22 -121q-1 -14 11 -14h48q10 0 12 4.5t2 12.5l23 118h79q11 0 12.5 4t3.5 12l4 33q2 8 1 14t-10 6h-79l7 47q1 4 3.5 6t5.5 2t5 -2t1 -6l-6 -32h63q17 0 21.5 -11t1.5 -24l-4 -33
q-1 -13 -7 -22.5t-23 -9.5h-68l-20 -104q-2 -13 -7 -21t-21 -8h-48q-13 0 -19.5 8t-4.5 21l17 104h-72l-17 -102q-1 -14 -6.5 -22.5t-23.5 -8.5h-46q-14 0 -21 8t-5 21l17 104h-63q-17 0 -21 11t-2 25l4 30q4 14 9 24t22 10h68l12 61h-66q-16 0 -21.5 9.5t-3.5 21.5l7 36
q3 13 7.5 22t21.5 9h72l15 102q2 11 7.5 20.5t22.5 9.5h46q13 0 20 -8t6 -20l-18 -104h74l15 100q3 13 8.5 22.5t23.5 9.5h45q17 0 21.5 -10.5t1.5 -24.5l-14 -97h60q18 0 22.5 -11t3.5 -25l-5 -31q-5 -18 -12 -24.5t-27 -6.5h-146l-13 -76h-101l15 88h49q7 0 5.5 -6
t-8.5 -6h-34l-10 -61h73q3 18 5.5 37t5.5 36h159q16 0 19.5 4t4.5 15l6 34q2 7 0.5 13t-12.5 6z" />
    <glyph glyph-name="at" unicode="@" horiz-adv-x="660" 
d="M327 520q-63 0 -118.5 -23.5t-97 -64t-65 -95.5t-23.5 -118q0 -90 40.5 -154.5t105 -101.5t145.5 -44.5t161 16.5q2 0 2 8.5t-7 7.5q-74 -25 -150.5 -18t-138.5 42.5t-101 97t-39 146.5q0 60 22.5 112.5t61 90.5t90.5 60t112 22q57 0 107 -20.5t87 -56.5t58.5 -84.5
t21.5 -105.5q0 -22 -3.5 -49t-13 -50.5t-26.5 -39.5t-45 -16q-32 0 -43.5 21.5t-11.5 48.5v178q0 13 -15 13h-49q-14 0 -14 -13v-19q-20 20 -38 31t-48 11q-28 0 -50 -11t-37.5 -29.5t-23.5 -42.5t-8 -51q0 -26 8 -50t23.5 -42t37.5 -28.5t50 -10.5q23 0 42.5 7.5t33.5 24.5
q-8 22 -8 43.5t2 43.5q2 27 -8.5 44.5t-37.5 17.5q-23 0 -37 -14t-14 -36q0 -21 14 -37t37 -16q6 0 12 3t11 4q5 2 6.5 -4t-6.5 -12q-11 -3 -23 -3q-29 0 -46.5 18.5t-17.5 46.5q0 29 17.5 46.5t46.5 17.5q33 0 48 -22.5t13 -53.5q-2 -18 -3 -35t4 -34q3 -12 10 -22
q-12 -9 -22.5 -17t-21 -14t-23 -9t-29.5 -3q-31 0 -55.5 12t-42 32t-26.5 46.5t-9 55.5t9 55.5t26.5 46.5t42 32t55.5 12q41 0 72 -23q10 15 28 15h49q27 0 27 -27v-178q0 -22 9 -39t34 -17t39.5 15.5t22 37.5t10 46t2.5 42q0 54 -20 100.5t-54.5 80.5t-82.5 53.5t-103 19.5
q-57 0 -106.5 -21t-86.5 -58t-58 -86.5t-21 -106.5q0 -81 37.5 -140t96.5 -93t132.5 -40.5t144.5 16.5h3q10 3 15.5 -2t6 -13t-2.5 -16t-10 -10q-83 -25 -166.5 -16.5t-150 47.5t-108 106.5t-41.5 160.5q0 67 24.5 124.5t67 100t100 66.5t123.5 24q64 0 119.5 -22.5
t96.5 -62.5t65 -94.5t24 -117.5q0 -34 -7 -68.5t-23.5 -62.5t-43.5 -45.5t-67 -17.5q-41 0 -75 20q-8 5 -14.5 10.5t-11.5 14.5q-3 4 1.5 8t9.5 -2q8 -10 22 -19q25 -17 68 -17q36 0 60.5 16.5t40 42t22 57.5t6.5 63q0 60 -23 112t-62.5 90t-93 59.5t-114.5 21.5z" />
    <glyph glyph-name="percent" unicode="%" horiz-adv-x="641" 
d="M140 0h-57q-20 0 -24.5 11t6.5 27l390 550q6 9 13 14t18 5h60q19 0 23.5 -11t-6.5 -25l-389 -552q-12 -19 -34 -19zM83 13h57q9 0 13.5 4t10.5 10l388 551q4 7 5.5 12t-11.5 5h-60q-6 0 -10 -3.5t-8 -8.5l-389 -552q-5 -7 -7.5 -12.5t11.5 -5.5zM294 474q0 28 -10.5 52
t-29 41.5t-44 27.5t-54.5 10q-28 0 -52.5 -10t-43 -27.5t-29 -41.5t-10.5 -52q0 -48 27 -83t76 -46q4 -2 1.5 -8.5t-9.5 -4.5q-50 12 -80 51.5t-30 90.5q0 31 12 58t32.5 46.5t47.5 30.5t58 11q32 0 60 -11t48.5 -30.5t32.5 -46.5t12 -58q0 -20 -5.5 -40t-16 -37.5
t-25.5 -30.5t-33 -19q-34 -13 -67 -1t-51 42q-11 17 -15 39t-1 43q4 35 23.5 50.5t41 14.5t39 -17t17.5 -44q0 -26 -17 -43.5t-43 -17.5q-12 0 -12 7t12 7q21 0 33.5 13.5t12.5 33.5q0 21 -13.5 33.5t-30 13.5t-31.5 -11t-18 -40q-2 -20 1.5 -39.5t13.5 -33.5
q14 -28 42.5 -38.5t57.5 -0.5q17 7 30 19.5t22 28.5t13.5 33.5t4.5 34.5zM607 138q0 -30 -10.5 -55t-28.5 -43t-42.5 -28t-52.5 -10q-29 0 -54.5 10t-44 28t-29.5 43t-11 55q0 45 28 80.5t74 46.5q5 2 2.5 9t-7.5 5q-49 -13 -80 -52t-31 -89q0 -32 12 -59.5t32.5 -47.5
t48.5 -31.5t60 -11.5q31 0 58 11.5t47 31.5t31.5 47.5t11.5 59.5q0 18 -5 37.5t-15 36.5t-24.5 30.5t-33.5 20.5q-30 12 -56 5t-44.5 -26t-27.5 -46t-5 -55q4 -36 23.5 -52t41 -14.5t39 18t17.5 45.5q0 26 -16.5 42t-42.5 16q-13 0 -13 -7t13 -7q20 0 33 -12.5t13 -31.5
q0 -23 -13.5 -36t-30.5 -14t-32.5 11.5t-19.5 41.5q-3 25 5 49t24 41t38.5 23.5t48.5 -3.5q17 -6 30 -18.5t21.5 -28.5t13 -33t4.5 -33z" />
    <glyph glyph-name="dollar" unicode="$" horiz-adv-x="464" 
d="M223 2q37 0 72 9.5t62.5 28.5t45.5 48.5t21 68.5q3 45 -11 75t-39 50.5t-57.5 34.5t-66.5 26v-100q13 -5 25.5 -11.5t23 -15t16.5 -20t5 -26.5q0 -20 -9 -33t-23 -21t-31.5 -11t-33.5 -3q-17 0 -33 3t-30 10t-24.5 18.5t-14.5 29.5q-1 8 -3 13.5t-13 5.5h-77
q-10 0 -11.5 -5t-1.5 -14q4 -37 19.5 -66.5t38.5 -49.5q60 -45 150 -45zM250 358q37 -15 72 -29.5t61.5 -35.5t41.5 -52.5t12 -80.5q-3 -40 -19 -70.5t-41.5 -52t-58 -34t-68.5 -15.5v-50q0 -11 -6.5 -18.5t-17.5 -7.5h-24q-11 0 -17 7.5t-6 18.5v52q-67 9 -112 47
q-29 20 -46 52.5t-21 73.5q-1 14 5 23.5t23 9.5h77q18 0 22.5 -10t6.5 -21q9 -33 45 -43v133q-12 4 -23 8t-21 10q-24 10 -46.5 24.5t-39 34.5t-26 47t-8.5 63q0 37 12.5 66.5t35.5 52.5q7 8 11 2.5t-4 -14.5q-18 -20 -30 -46t-12 -61q-1 -33 8 -58.5t25 -44t38 -32.5
t46 -24q5 -3 14 -6t20 -8v109q-4 0 -4 2q-20 13 -39 30.5t-31 39.5q-16 28 -17.5 55t8.5 49.5t31.5 38.5t51.5 24v53q0 11 6 18.5t17 7.5h24q11 0 17.5 -7.5t6.5 -18.5v-52q32 -2 61.5 -14.5t50.5 -32.5q24 -21 40.5 -51.5t19.5 -72.5q2 -14 -5.5 -22.5t-21.5 -8.5h-75
q-20 0 -24 10.5t-6 21.5q-4 17 -15 27t-25 14v-131zM236 -12h-13h-32v-50q0 -11 11 -11h24q10 0 10 11v50zM191 120q11 -3 22 -3.5t23 -0.5v554q0 12 -10 12h-24q-11 0 -11 -12v-550zM250 117q21 5 38.5 17t17.5 36q0 23 -19 36t-37 21v-110zM179 488q-5 -2 -8 -3.5l-7 -3.5
q-10 -8 -13.5 -2.5t3.5 10.5t12 8t13 4v101q-27 -7 -45.5 -21.5t-26.5 -34t-5.5 -43t16.5 -48.5q10 -19 25.5 -34t35.5 -28v95zM250 502q18 -5 32.5 -17t22.5 -35q1 -6 2.5 -13t12.5 -7h75q9 0 12 4.5t3 12.5q-9 76 -59 115q-18 16 -45 27.5t-56 14.5v-102z" />
    <glyph glyph-name="asciicircum" unicode="^" horiz-adv-x="429" 
d="M255 585q-7 10 -20 10h-53q-10 0 -17 -10l-4 -7l56 -101l-82 -143q-8 -20 -27 -20h-76q-22 0 -25 13t8 27l105 182q4 5 9 2t3 -11l-105 -180q-5 -8 -5.5 -13.5t10.5 -5.5h76q9 0 17 12l77 137l-55 101l6 14q5 8 13 11.5t16 3.5h53q11 0 18 -3.5t13 -11.5l140 -244
q8 -12 1.5 -23t-22.5 -11h-73q-23 0 -31 20l-55 100q-5 10 1 11t10 -6l55 -99q6 -12 20 -12h73q8 0 11.5 4t-1.5 11z" />
    <glyph glyph-name="ampersand" unicode="&#x26;" horiz-adv-x="582" 
d="M480 116l80 -81q6 -6 7.5 -11.5t0.5 -10.5q-4 -13 -23 -13h-97q-13 0 -19.5 2.5t-14.5 10.5l-11 11t-8 9q-37 -23 -79.5 -34t-88.5 -11q-42 0 -82 11.5t-71 35t-50 58.5t-19 82q0 51 25.5 98.5t72.5 71.5q17 -23 38.5 -44.5t43.5 -42.5l143 -141l-8 -3q-20 -11 -40 -15.5
t-43 -4.5q-30 0 -56 11t-41.5 29.5t-18 43.5t13.5 53q6 9 12 6t0 -12q-14 -26 -11 -47t16.5 -36t36 -23t48.5 -8q18 0 35.5 2.5t32.5 8.5l-205 206q-39 -28 -59.5 -68t-20.5 -85q0 -44 17.5 -76.5t46.5 -54t66 -32t77 -10.5q48 0 90 10.5t80 37.5q2 -4 11 -12t17 -16
q5 -6 9 -7.5t14 -1.5h97q9 0 9 4q0 2 -1 3.5t-2 3.5l-91 90l5 3q11 20 21 38t17 40q12 41 15 81q2 6 0.5 10t-12.5 4h-78q-11 0 -11.5 -7t-2.5 -15q-2 -19 -6 -38.5t-13 -36.5l-3 -11l-199 201q-16 24 -17.5 46t8 39.5t30 27.5t47.5 10q32 0 57.5 -14.5t30.5 -48.5
q2 -7 5 -10t11 -3h76q10 0 12 4.5t1 12.5q-8 77 -61.5 117.5t-131.5 40.5q-36 0 -70 -11t-61 -31.5t-43 -50.5t-16 -69q0 -11 3 -28.5t8 -28.5q2 -5 -4 -8.5t-11 5.5q-4 14 -6.5 31t-2.5 29q0 42 17 75t45 56t65 35.5t76 12.5q41 0 77 -12t63.5 -34.5t44.5 -55t20 -73.5
q3 -31 -25 -31h-76q-14 0 -20 6t-8 20q-7 27 -28.5 40t-47.5 13q-23 0 -39.5 -8.5t-25 -23t-6.5 -33t16 -37.5l181 -186q6 15 8.5 30.5t4.5 30.5q3 12 7 23t21 11h78q17 0 22.5 -6t4.5 -20q-2 -23 -5.5 -44t-11.5 -41q-6 -21 -15 -39.5t-21 -35.5z" />
    <glyph glyph-name="asterisk" unicode="*" horiz-adv-x="304" 
d="M251 516l-56 -3l-17 -2l11 10l33 45q2 4 2 8.5t-5 8.5l-22 14q-11 7 -19 -5l-33 -65l-33 65q-8 12 -19 5l-20 -14q-14 -8 -3 -17l31 -45l11 -10l-16 2l-56 3q-13 0 -13 -12v-26v-4q5 -9 13 -8l56 4h16l-11 -10l-31 -44v-1q-5 -7 -3.5 -10t6.5 -8l20 -14q12 -5 19 5l27 54
l6 12l7 -12l26 -54q7 -10 19 -5l22 15q8 7 3 18l-44 54l73 -4q12 -2 12 12v26q0 12 -12 12zM207 525l42 4q14 2 21.5 -5.5t7.5 -19.5v-26q0 -13 -7.5 -20t-21.5 -4l-42 1l25 -32q8 -10 6.5 -20t-13.5 -18l-21 -14q-11 -7 -22 -3.5t-16 15.5l-21 40l-21 -40q-5 -12 -16 -15.5
t-22 3.5l-20 14q-23 16 -8 36l3 2l22 32l-41 -1q-11 -3 -19 3t-9 17v4v26q0 12 7 19.5t21 5.5l41 -4l-22 32q-19 23 5 38l21 12q11 8 21.5 6t15.5 -14l21 -44l21 44q5 12 16 14t22 -6l21 -12q25 -15 7 -38z" />
    <glyph glyph-name="parenright" unicode=")" horiz-adv-x="236" 
d="M99 682h-67q-2 0 -3.5 -1.5t-2.5 -1.5q-2 0 -2 -0.5t-2 -0.5v-5q0 -3 2 -6q41 -88 62 -177t21 -186q0 -133 -46 -266q-2 -8 -8 -7.5t-4 7.5q44 129 44 266q0 95 -21.5 183t-61.5 173q-2 5 -2 8v5q0 9 2 12t9 5q4 2 6.5 4t6.5 2h67q6 0 10 -2t8 -5q2 -2 6 -5t6 -8
q42 -90 64.5 -181t22.5 -191q0 -97 -22.5 -190t-64.5 -181q-5 -9 -12 -15t-18 -6h-67q-16 0 -22.5 11t0.5 26q7 12 13 25t11 28h49q6 0 5.5 -7t-5.5 -7h-41q-5 -12 -9 -23.5t-9 -23.5q-9 -14 8 -14h67q14 0 17 11q42 88 63.5 179t21.5 187q0 97 -21.5 187.5t-63.5 178.5
q0 2 -2 4t-3 4q-3 1 -5.5 2.5t-6.5 1.5z" />
    <glyph glyph-name="less" unicode="&#x3c;" horiz-adv-x="440" 
d="M400 488q0 13 -6.5 11.5t-14.5 -3.5l-326 -142q-8 -3 -12.5 -6t-4.5 -14v-43q0 -5 -7 -5t-7 5v43q0 15 8 21.5t19 12.5l325 140q14 7 26 4.5t12 -24.5v-72q0 -14 -7.5 -20t-18.5 -11q-87 -34 -170.5 -67t-168.5 -65l327 -142q8 -5 17 -8t9 11v72q0 12 -8.5 15.5
t-17.5 6.5l-173 67q-6 3 -3 9t11 3l169 -66q13 -4 23.5 -10.5t10.5 -24.5v-72q0 -23 -13.5 -23t-28.5 6l-323 140q-8 3 -14.5 7t-8.5 12l357 143q8 2 13.5 5t5.5 12v72z" />
    <glyph glyph-name="greater" unicode="&#x3e;" horiz-adv-x="444" 
d="M33 114q0 -11 7 -10.5t12 5.5l326 140q8 3 13 6.5t5 14.5v40q0 8 7 8t7 -8v-40q0 -16 -7.5 -22.5t-18.5 -10.5l-325 -142q-16 -6 -28 -3.5t-12 22.5v72q0 17 8 23t21 11q169 63 336 132l-325 141q-8 4 -17 6.5t-9 -10.5v-71q0 -12 9 -15t18 -8l170 -68q7 -3 4.5 -8.5
t-11.5 -3.5l-169 66q-13 6 -24 12t-11 25v71q0 12 4.5 17t11 6.5t14.5 -0.5t15 -5l322 -139q8 -5 13 -8.5t9 -13.5l-356 -140q-7 -3 -13 -6t-6 -14v-72z" />
    <glyph glyph-name="slash" unicode="/" horiz-adv-x="379" 
d="M12 -77q7 0 10 7l329 740q2 4 3 7.5t-6 3.5h-21q-6 0 -7.5 -2.5t-3.5 -6.5l-328 -738q-2 -5 -3 -8t7 -3h20zM12 -93h-22q-16 0 -18.5 10.5t3.5 20.5l328 735q4 9 7.5 15.5t16.5 6.5h21q16 0 18.5 -9t-3.5 -20l-328 -740q-4 -8 -8.5 -13.5t-14.5 -5.5z" />
    <glyph glyph-name="backslash" unicode="\" horiz-adv-x="417" 
d="M361 -77h20q7 0 5.5 3t-3.5 8l-328 736q-2 5 -3.5 8t-7.5 3h-22q-7 0 -6 -3.5t5 -7.5l326 -734q3 -6 4.5 -9.5t9.5 -3.5zM381 -93h-20q-14 0 -18.5 7t-9.5 18l-326 736q-6 10 -2.5 18.5t17.5 8.5h22q12 0 17 -6.5t9 -15.5l326 -735q6 -11 3 -21t-18 -10z" />
    <glyph glyph-name="M" unicode="M" horiz-adv-x="659" 
d="M592 596h-97q-5 0 -9.5 -1.5t-7.5 -8.5l-129 -300q-5 -5 -10.5 -3t-1.5 10l130 299q2 9 10 14t18 5h97q13 0 20 -7.5t7 -19.5v-556q0 -28 -27 -28h-78q-11 0 -18.5 7.5t-7.5 20.5v347l-110 -252q-3 -5 -7.5 -5t-6.5 5l-202 463q-3 7 -6.5 8.5t-9.5 1.5h-98q-14 0 -14 -12
v-556q0 -6 4 -10q2 -4 10 -4h77q7 0 9 4q5 5 5 10v412l139 -319q2 -7 5.5 -8.5t11.5 -1.5h32q9 0 9 -8t-9 -8h-32q-23 0 -31 21l-112 259v-347q0 -6 -1.5 -11.5t-6.5 -7.5q-2 -5 -8 -7t-11 -2h-77q-6 0 -11.5 2t-7.5 7q-8 5 -8 19v556q0 12 7.5 19.5t19.5 7.5h98
q19 0 30 -19l196 -452l130 300v-412q0 -14 12 -14h78q13 0 13 14v556q0 12 -13 12z" />
    <glyph glyph-name="N" unicode="N" horiz-adv-x="523" 
d="M362 584v-370l-238 374q-2 5 -7 6.5t-10 1.5h-65q-8 2 -8 7.5t8 7.5h65q9 0 17.5 -4t13.5 -12l210 -336v325q0 12 7 19.5t20 7.5h78q12 0 19.5 -7.5t7.5 -19.5v-556q0 -13 -7.5 -20.5t-19.5 -7.5h-54q-16 0 -23.5 9t-15.5 21q-80 128 -160.5 254.5t-159.5 254.5v-511
q0 -14 14 -14h77q12 0 12 14v275q0 7 7 7.5t7 -7.5v-275q0 -13 -7.5 -20.5t-18.5 -7.5h-77q-28 0 -28 28v532q0 5 5.5 7t10.5 -7q85 -133 167 -263.5t164 -262.5q6 -8 10 -14t16 -6h54q13 0 13 14v556q0 12 -13 12h-78q-13 0 -13 -12z" />
    <glyph glyph-name="L" unicode="L" horiz-adv-x="409" 
d="M347 112h-140q-7 0 -7 7t7 7h140q25 0 25 -26v-72q0 -28 -25 -28h-210v584q0 12 -14 12h-75q-14 0 -14 -12v-556q0 -14 14 -14h45q8 0 8 -7t-8 -7h-45q-27 0 -27 28v556q0 12 6.5 19.5t20.5 7.5h75q13 0 20.5 -7.5t7.5 -19.5v-570h196q13 0 13 14v72q0 12 -13 12z" />
    </font>
</defs>
</svg>
