<?xml version="1.0" standalone="no"?>
<!DOCTYPE svg PUBLIC "-//W3C//DTD SVG 1.1//EN" "http://www.w3.org/Graphics/SVG/1.1/DTD/svg11.dtd" >
<svg xmlns="http://www.w3.org/2000/svg" xmlns:xlink="http://www.w3.org/1999/xlink" version="1.1">
<metadata>
Created by FontForge 20170910 at Thu May 17 10:50:27 2018
 By Jimmy Wärting
 
</metadata>
<defs>
<font id="ABSTERRegular" horiz-adv-x="424" >
  <font-face 
    font-family="ABSTER"
    font-weight="500"
    font-stretch="normal"
    units-per-em="1000"
    panose-1="0 0 0 0 0 0 0 0 0 0"
    ascent="800"
    descent="-200"
    cap-height="875"
    bbox="-0.000976562 -0.000976562 1201.68 897.189"
    underline-thickness="50"
    underline-position="-100"
    unicode-range="U+000D-00A0"
  />
<missing-glyph horiz-adv-x="650" 
 />
    <glyph glyph-name=".notdef" horiz-adv-x="650" 
 />
    <glyph glyph-name="controlCR" unicode="&#xd;" 
 />
    <glyph glyph-name="space" unicode=" " 
 />
    <glyph glyph-name="A" unicode="A" horiz-adv-x="849" 
d="M439.142 875l359.442 -875h-131.482l-265.134 645.55l-2.45898 6.8418l-0.144531 -0.462891l-0.144531 0.246094l-0.144531 -0.246094l-0.144531 0.462891l-2.45898 -6.8418l-265.134 -645.55h-131.338l359.298 875h79.8438z" />
    <glyph glyph-name="B" unicode="B" horiz-adv-x="657" 
d="M0 536.661l346.424 -0.000976562h3.61621c44.2617 3.51465 79.2656 56.0059 79.2656 116.67c0 61.8359 -37.3184 114.342 -82.8818 114.342h-346.425v107.326h346.425c117.886 0 212.339 -100.34 212.339 -221.668c0 -63.0068 -25.6025 -121.327 -66.3926 -162.16
c68.8506 -47.834 114.27 -129.5 114.27 -222.825c0 -148.188 -116.729 -268.345 -260.216 -268.345h-346.425v107.341h346.425c72.3223 0 130.759 72.3223 130.759 161.004c0 86.3096 -55.9775 157.489 -124.828 160.976h-352.354v107.341z" />
    <glyph glyph-name="C" unicode="C" horiz-adv-x="678" 
d="M444.493 107.341c45.5635 0 97.9238 9.70605 143.776 30.9834l33.4131 -105.765c-54.3867 -21.668 -114.27 -32.5596 -177.19 -32.5596c-246.186 0 -444.493 194.837 -444.493 449.181c0 253.172 198.308 448.009 444.493 448.009
c65.3799 0 127.577 -11.832 183.844 -35.4385l-51.2041 -98.6045c-40.79 17.748 -86.6426 26.7012 -132.64 26.7012c-180.806 0 -315.036 -161.004 -315.036 -340.667c0 -164.505 121.357 -341.84 315.037 -341.84z" />
    <glyph glyph-name="D" unicode="D" horiz-adv-x="661" 
d="M191.365 875c232.155 -1.15723 419.904 -197.165 419.904 -437.492c0 -241.499 -187.749 -436.336 -419.904 -437.508h-191.365v107.341h189.051c76.9512 0 150.431 32.6611 205.251 94.4971c55.9775 62.9932 87.5098 145.831 87.5098 235.67
c0 88.667 -31.5322 172.662 -87.5098 234.498c-54.8203 61.8213 -128.3 95.668 -205.251 95.668h-189.051v107.326h191.365z" />
    <glyph glyph-name="E" unicode="E" horiz-adv-x="632" 
d="M499.314 508.673v-108.498h-499.314v108.498h499.314zM0 0v107.326h582.195v-107.326h-582.195zM0 875h582.195v-107.326h-582.195v107.326z" />
    <glyph glyph-name="F" unicode="F" horiz-adv-x="631" 
d="M0 494.671h499.313v-107.341h-369.856v-387.33h-129.457v494.671zM0 875h581.038v-107.326h-581.038v107.326z" />
    <glyph glyph-name="G" unicode="G" horiz-adv-x="852" 
d="M444.493 789.848c-187.894 0 -313.88 -150.518 -313.88 -340.668c0 -164.505 120.2 -341.84 313.88 -341.84v-107.341c-245.028 0 -444.493 194.837 -444.493 449.181c-0 253.172 199.465 448.009 444.493 448.009c128.3 0 243.727 -44.3477 324.294 -134.187
l-85.1963 -85.1523c-62.9209 69.9932 -136.545 111.998 -239.098 111.998zM489.621 501.672h312.433v-107.326h-312.433v107.326z" />
    <glyph glyph-name="H" unicode="H" horiz-adv-x="721" 
d="M541.261 875h129.602v-875h-129.602v875zM129.457 875v-385.001h312.433v-107.326h-312.433v-382.673h-129.457v875h129.457z" />
    <glyph glyph-name="I" unicode="I" horiz-adv-x="179" 
d="M129.457 0h-129.457v875h129.457v-875z" />
    <glyph glyph-name="J" unicode="J" horiz-adv-x="334" 
d="M0 107.341c151.588 0 152.745 128.33 152.745 180.836v598.497h130.759v-598.497c0 -141.174 -68.8506 -288.177 -283.504 -288.177v107.341z" />
    <glyph glyph-name="K" unicode="K" horiz-adv-x="707" 
d="M0 475.997l466.769 399.002h190.063l-430.463 -361.67l430.463 -513.33h-180.806l-348.884 430.507l-127.143 -106.169v151.66z" />
    <glyph glyph-name="L" unicode="L" horiz-adv-x="621" 
d="M570.624 107.341v-107.341h-570.624v875h129.602v-767.659h441.022z" />
    <glyph glyph-name="M" unicode="M" horiz-adv-x="970" 
d="M0 0v394.403l130.614 -0.520508v-393.883h-130.614zM747.958 875h171.981v-875h-129.457v656.832l-293.773 -656.832h-73.4795l-423.23 875h156.217l303.176 -662.198z" />
    <glyph glyph-name="N" unicode="N" horiz-adv-x="806" 
d="M0 0v388.473l130.614 -0.505859v-387.967h-130.614zM626.472 875h129.5v-875h-156.317l-599.654 875h156.361l470.11 -696.494v696.494z" />
    <glyph glyph-name="O" unicode="O" horiz-adv-x="939" 
d="M129.501 449.18c0 -178.506 130.671 -341.839 315.006 -341.839c185.507 0 315.008 163.333 315.008 341.839c0 177.335 -130.672 340.668 -315.007 340.668s-315.007 -163.333 -315.007 -340.668zM889.016 449.18c0 -254.344 -199.509 -449.181 -444.508 -449.181
c-245.014 0 -444.508 194.837 -444.508 449.181c-0 254.329 199.494 448.009 444.508 448.009c244.999 0 444.508 -193.68 444.508 -448.009z" />
    <glyph glyph-name="P" unicode="P" horiz-adv-x="699" 
d="M0 338.324h338.339c100.325 0 180.835 96.8398 180.835 214.668c0 117.842 -80.5098 214.682 -180.835 214.682h-338.339v107.326h340.682c170.319 -1.15723 307.992 -144.659 307.992 -322.008c0 -177.32 -137.673 -320.822 -307.992 -321.979h-210.01v-231.013
h-130.672v338.324z" />
    <glyph glyph-name="Q" unicode="Q" horiz-adv-x="939" 
d="M444.493 897.188c245.014 0 444.521 -193.681 444.521 -448.01c0 -7.6084 -0.202148 -15.1445 -0.563477 -22.6367h-129.718c0.462891 7.50684 0.78125 15.0576 0.78125 22.6367c0 177.335 -130.687 340.668 -315.021 340.668s-315.007 -163.333 -315.007 -340.668
c0 -178.506 130.672 -341.839 315.007 -341.839h0.0146484v-107.341h-0.0146484c-244.999 0 -444.493 194.837 -444.493 449.181c-0 254.329 199.494 448.009 444.493 448.009zM494.814 195.24l92.3984 92.3994l177.176 -180.69l-91.1982 -95.2773z" />
    <glyph glyph-name="R" unicode="R" horiz-adv-x="699" 
d="M338.339 361.67c99.1826 0 180.835 83.9951 180.835 202.994c0 117.828 -81.6523 203.01 -180.835 203.01h-338.339v107.326h129.515h209.995c171.506 -1.15723 309.164 -134.158 309.164 -310.336c0 -132.986 -76.9941 -240.327 -187.821 -287.004l187.821 -277.66
h-143.502l-171.491 254.329h-204.166v-254.329h-129.515v361.67h338.339z" />
    <glyph glyph-name="S" unicode="S" horiz-adv-x="689" 
d="M607.855 332.495c3.5 -8.17285 31.4902 -87.4951 -4.6709 -170.333c-41.9619 -99.082 -159.631 -160.874 -306.431 -162.161v107.341c101.237 1.25879 160.629 38.5625 185.103 96.8105c18.6592 43.1768 3.5 89.8389 2.32812 90.9961
c-24.5029 67.6797 -92.168 82.8389 -187.821 112.014c-108.513 32.6611 -233.355 59.5068 -274.174 173.834c-22.1885 59.4922 -16.3301 128.329 13.9873 184.336c67.6797 128.329 240.342 131.844 260.188 131.844c128.314 0 242.642 -56.0068 324.308 -145.846
l-85.1523 -85.167c-47.8486 70.0078 -141.174 123.671 -239.156 123.671c-1.18652 0 -103.855 0 -143.517 -74.666c-15.1729 -29.1748 -18.6729 -67.665 -8.17188 -98.0117c23.3457 -64.1504 89.8389 -79.3232 183.178 -107.326
c110.827 -33.8467 235.655 -59.5068 280.003 -177.335z" />
    <glyph glyph-name="T" unicode="T" horiz-adv-x="450" 
d="M400.175 767.674h-270.66v-767.674h-129.515l0.0146484 875h400.16v-107.326z" />
    <glyph glyph-name="U" unicode="U" horiz-adv-x="752" 
d="M702.338 534.593v-179.909c0 -141.174 -56.0068 -354.684 -349.997 -354.684s-352.34 213.51 -352.34 354.684v531.989h129.515v-531.989c0 -52.5059 11.6582 -247.343 222.825 -247.343c211.152 0 220.496 194.837 220.496 247.343v179.909h129.501z" />
    <glyph glyph-name="V" unicode="V" horiz-adv-x="798" 
d="M337.167 0l-337.167 875h138.83l235.67 -600.58l234.513 600.58h138.815l-337.167 -875h-73.4941z" />
    <glyph glyph-name="W" unicode="W" horiz-adv-x="1252" 
d="M1062.85 875l138.829 0.000976562l-311.507 -875h-130.571l-140.45 509.309h129.342l84.8779 -307.79zM567.021 875.001h129.182l-318.189 -875h-66.4932l-311.521 875h137.673l208.853 -617.171z" />
    <glyph glyph-name="X" unicode="X" horiz-adv-x="807" 
d="M0 0l152.253 218.168h151.356l-151.949 -218.168h-151.66zM757.172 875l-304.506 -438.664l303.335 -436.336h-150.503l-605.498 875h151.66l226.34 -327.838l228.654 327.838h150.518z" />
    <glyph glyph-name="Y" unicode="Y" horiz-adv-x="840" 
d="M632.633 875h157.489l-154.221 -248.225h-154.466zM-0 875h157.488l303.566 -498.389v-376.611h-133.42v347.668z" />
    <glyph glyph-name="Z" unicode="Z" horiz-adv-x="686" 
d="M635.844 742.014l-500.516 -634.673h500.515v-107.341h-635.844v133.001l499.343 634.673h-499.343v107.326h575.166h60.6787v-132.986z" />
    <glyph glyph-name="nonbreakingspace" unicode="&#xa0;" 
 />
  </font>
</defs>
</svg>
